<svg width="1486" height="1187" xmlns="http://www.w3.org/2000/svg" xmlns:xlink="http://www.w3.org/1999/xlink" version="1.1" baseProfile="full" viewBox="0 0 1486 1187">
<rect width="1486" height="1187" x="0" y="0" fill="none"></rect>
<path d="M743 546.02A47.48 47.48 0 1 1 742.9953 546.02Z" fill="#3a5f7d" stroke="#fff" stroke-width="3" stroke-linejoin="bevel" filter="url(#zr1-s0)" class="zr1-cls-40"></path>
<path d="M743 406.8434A20 20 0 0 1 765.1308 386.9573A207.725 207.725 0 0 1 950.6648 588.501A20 20 0 0 1 929.019 608.914L807.2279 598.8221A20 20 0 0 1 789.3539 583.2204A47.48 47.48 0 0 0 757.0723 548.1533A20 20 0 0 1 743 529.052Z" fill="#6b9ac4" stroke="#fff" stroke-width="2" stroke-linejoin="bevel" class="zr1-cls-41"></path>
<path d="M743 228.2722A20 20 0 0 1 764.0936 208.3021A385.775 385.775 0 0 1 1012.113 317.0935A20 20 0 0 1 1011.7068 346.1379L909.8953 439.862A20 20 0 0 1 882.8817 439.9331A207.725 207.725 0 0 0 761.2435 386.5777A20 20 0 0 1 743 366.655Z" fill="#8fb3d9" stroke="#fff" stroke-width="3" stroke-linejoin="bevel" class="zr1-cls-42"></path>
<path d="M743 196.0322A11.87 11.87 0 0 1 755.2243 184.1675A409.515 409.515 0 0 1 841.5227 196.0131A11.87 11.87 0 0 1 850.0979 210.7329L850.0979 210.7329A11.87 11.87 0 0 1 835.8112 219.0558A385.775 385.775 0 0 0 754.5157 207.8969A11.87 11.87 0 0 1 743 196.0322Z" fill="#b3d1ee" stroke="#fff" stroke-linejoin="bevel" class="zr1-cls-43"></path>
<path d="M850.0979 210.7329A11.87 11.87 0 0 1 865.0671 202.6008A409.515 409.515 0 0 1 944.9818 237.2615A11.87 11.87 0 0 1 949.2737 253.7474L949.2737 253.7474A11.87 11.87 0 0 1 933.2728 257.913A385.775 385.775 0 0 0 857.9907 225.2617A11.87 11.87 0 0 1 850.0979 210.7329Z" fill="#c9e0f5" stroke="#fff" stroke-linejoin="bevel" class="zr1-cls-44"></path>
<path d="M949.2737 253.7474A11.87 11.87 0 0 1 965.8804 249.9496A409.515 409.515 0 0 1 1035.8764 307.2729A11.87 11.87 0 0 1 1035.4266 324.3024L1035.4266 324.3024A11.87 11.87 0 0 1 1018.8981 323.8658A385.775 385.775 0 0 0 952.9598 269.8656A11.87 11.87 0 0 1 949.2737 253.7474Z" fill="#dbe9f7" stroke="#fff" stroke-linejoin="bevel" class="zr1-cls-45"></path>
<path d="M1011.7068 346.1379A20 20 0 0 1 1040.6856 348.1316A385.775 385.775 0 0 1 1128.6241 604.2879A20 20 0 0 1 1106.9804 623.6603L969.0703 612.2327A20 20 0 0 1 950.7221 592.4063A207.725 207.725 0 0 0 907.5937 466.7775A20 20 0 0 1 909.8953 439.862Z" fill="#7fa5d6" stroke="#fff" stroke-width="3" stroke-linejoin="bevel" class="zr1-cls-46"></path>
<path d="M1035.4266 324.3024A11.87 11.87 0 0 1 1052.435 325.2604A409.515 409.515 0 0 1 1102.1682 396.775A11.87 11.87 0 0 1 1097.1464 413.0534L1097.1464 413.0534A11.87 11.87 0 0 1 1081.3469 408.1793A385.775 385.775 0 0 0 1034.4968 340.8105A11.87 11.87 0 0 1 1035.4266 324.3024Z" fill="#a3c6eb" stroke="#fff" stroke-linejoin="bevel" class="zr1-cls-47"></path>
<path d="M1097.1464 413.0534A11.87 11.87 0 0 1 1113.2677 418.5589A409.515 409.515 0 0 1 1141.8918 500.8291A11.87 11.87 0 0 1 1132.6695 515.1523L1132.6695 515.1523A11.87 11.87 0 0 1 1118.7676 506.2013A385.775 385.775 0 0 0 1091.8029 428.7004A11.87 11.87 0 0 1 1097.1464 413.0534Z" fill="#c0daf2" stroke="#fff" stroke-linejoin="bevel" class="zr1-cls-48"></path>
<path d="M1132.6695 515.1523A11.87 11.87 0 0 1 1146.711 524.7981A409.515 409.515 0 0 1 1151.9439 615.1198A11.87 11.87 0 0 1 1139.1102 626.3226L1139.1102 626.3226A11.87 11.87 0 0 1 1128.237 613.8665A385.775 385.775 0 0 0 1123.3075 528.7808A11.87 11.87 0 0 1 1132.6695 515.1523Z" fill="#d5e6f8" stroke="#fff" stroke-linejoin="bevel" class="zr1-cls-49"></path>
<path d="M929.019 608.914A20 20 0 0 1 947.0097 632.6114A207.725 207.725 0 0 1 664.16 785.682A20 20 0 0 1 654.1613 757.6596L712.3261 650.1804A20 20 0 0 1 733.7936 640.0789A47.48 47.48 0 0 0 787.0297 611.269A20 20 0 0 1 807.2279 598.8221Z" fill="#d98c6c" stroke="#fff" stroke-width="2" stroke-linejoin="bevel" class="zr1-cls-50"></path>
<path d="M1106.9804 623.6603A20 20 0 0 1 1125.1403 646.3309A385.775 385.775 0 0 1 1040.6856 838.8684A20 20 0 0 1 1011.7068 840.8621L909.8953 747.138A20 20 0 0 1 907.5937 720.2225A207.725 207.725 0 0 0 947.709 628.7687A20 20 0 0 1 969.0703 612.2327Z" fill="#e1a287" stroke="#fff" stroke-width="3" stroke-linejoin="bevel" class="zr1-cls-51"></path>
<path d="M1139.1102 626.3226A11.87 11.87 0 0 1 1149.925 639.485A409.515 409.515 0 0 1 1142.8079 682.1349A11.87 11.87 0 0 1 1128.3054 691.0726L1128.3054 691.0726A11.87 11.87 0 0 1 1119.6307 676.9967A385.775 385.775 0 0 0 1126.3351 636.8192A11.87 11.87 0 0 1 1139.1102 626.3226Z" fill="#ebc0ab" stroke="#fff" stroke-linejoin="bevel" class="zr1-cls-52"></path>
<path d="M1128.3054 691.0726A11.87 11.87 0 0 1 1136.8061 705.8355A409.515 409.515 0 0 1 1122.7662 746.7323A11.87 11.87 0 0 1 1106.9904 753.161L1106.9904 753.161A11.87 11.87 0 0 1 1100.7508 737.8493A385.775 385.775 0 0 0 1113.9768 699.3233A11.87 11.87 0 0 1 1128.3054 691.0726Z" fill="#f2d5c5" stroke="#fff" stroke-linejoin="bevel" class="zr1-cls-53"></path>
<path d="M1106.9904 753.161A11.87 11.87 0 0 1 1112.9453 769.1217A409.515 409.515 0 0 1 1092.3655 807.1499A11.87 11.87 0 0 1 1075.7467 810.8943L1075.7467 810.8943A11.87 11.87 0 0 1 1072.1125 794.7644A385.775 385.775 0 0 0 1091.4992 758.9407A11.87 11.87 0 0 1 1106.9904 753.161Z" fill="#f6e2d4" stroke="#fff" stroke-linejoin="bevel" class="zr1-cls-54"></path>
<path d="M1075.7467 810.8943A11.87 11.87 0 0 1 1078.9934 827.6175A409.515 409.515 0 0 1 1052.435 861.7396A11.87 11.87 0 0 1 1035.4266 862.6976L1035.4266 862.6976A11.87 11.87 0 0 1 1034.4968 846.1895A385.775 385.775 0 0 0 1059.5155 814.0454A11.87 11.87 0 0 1 1075.7467 810.8943Z" fill="#f8e5dc" stroke="#fff" stroke-linejoin="bevel" class="zr1-cls-55"></path>
<path d="M1011.7068 840.8621A20 20 0 0 1 1012.113 869.9065A385.775 385.775 0 0 1 827.2074 969.9724A20 20 0 0 1 803.1145 953.7466L780.3375 817.2512A20 20 0 0 1 795.053 794.5974A207.725 207.725 0 0 0 882.8817 747.0669A20 20 0 0 1 909.8953 747.138Z" fill="#d29a7c" stroke="#fff" stroke-width="3" stroke-linejoin="bevel" class="zr1-cls-56"></path>
<path d="M1035.4266 862.6976A11.87 11.87 0 0 1 1035.8764 879.7271A409.515 409.515 0 0 1 985.3779 923.584A11.87 11.87 0 0 1 968.5794 920.7531L968.5794 920.7531A11.87 11.87 0 0 1 971.327 904.4487A385.775 385.775 0 0 0 1018.8981 863.1342A11.87 11.87 0 0 1 1035.4266 862.6976Z" fill="#e4b59f" stroke="#fff" stroke-linejoin="bevel" class="zr1-cls-57"></path>
<path d="M968.5794 920.7531A11.87 11.87 0 0 1 965.2482 937.4597A409.515 409.515 0 0 1 906.294 969.0497A11.87 11.87 0 0 1 890.539 962.5703L890.539 962.5703A11.87 11.87 0 0 1 896.8277 947.2787A385.775 385.775 0 0 0 952.3643 917.52A11.87 11.87 0 0 1 968.5794 920.7531Z" fill="#f0d0c0" stroke="#fff" stroke-linejoin="bevel" class="zr1-cls-58"></path>
<path d="M890.539 962.5703A11.87 11.87 0 0 1 883.5922 978.125A409.515 409.515 0 0 1 822.4315 995.2377A11.87 11.87 0 0 1 808.421 985.5469L808.421 985.5469A11.87 11.87 0 0 1 817.8268 971.9485A385.775 385.775 0 0 0 875.4419 955.8279A11.87 11.87 0 0 1 890.539 962.5703Z" fill="#f5e1d2" stroke="#fff" stroke-linejoin="bevel" class="zr1-cls-59"></path>
<path d="M803.1145 953.7466A20 20 0 0 1 785.5956 976.9162A385.775 385.775 0 0 1 578.2173 942.3109A20 20 0 0 1 569.1708 914.7083L635.0337 793.0043A20 20 0 0 1 660.5605 784.1657A207.725 207.725 0 0 0 759.0636 800.603A20 20 0 0 1 780.3375 817.2512Z" fill="#c78b6e" stroke="#fff" stroke-width="3" stroke-linejoin="bevel" class="zr1-cls-60"></path>
<path d="M808.421 985.5469A11.87 11.87 0 0 1 798.3163 999.2618A409.515 409.515 0 0 1 687.6837 999.2618A11.87 11.87 0 0 1 677.579 985.5469L677.579 985.5469A11.87 11.87 0 0 1 690.8904 975.7394A385.775 385.775 0 0 0 795.1096 975.7394A11.87 11.87 0 0 1 808.421 985.5469Z" fill="#dfb09b" stroke="#fff" stroke-linejoin="bevel" class="zr1-cls-61"></path>
<path d="M677.579 985.5469A11.87 11.87 0 0 1 663.5685 995.2377A409.515 409.515 0 0 1 558.9302 959.3153A11.87 11.87 0 0 1 553.8262 943.0625L553.8262 943.0625A11.87 11.87 0 0 1 569.6009 938.1086A385.775 385.775 0 0 0 668.1732 971.9485A11.87 11.87 0 0 1 677.579 985.5469Z" fill="#ecd1c5" stroke="#fff" stroke-linejoin="bevel" class="zr1-cls-62"></path>
<path d="M654.1613 757.6596A20 20 0 0 1 625.2331 764.6158A207.725 207.725 0 0 1 720.8692 386.9573A20 20 0 0 1 743 406.8434L743 529.052A20 20 0 0 1 728.9277 548.1533A47.48 47.48 0 0 0 709.0411 626.6835A20 20 0 0 1 712.3261 650.1804Z" fill="#7fb7a5" stroke="#fff" stroke-width="2" stroke-linejoin="bevel" class="zr1-cls-63"></path>
<path d="M569.1708 914.7083A20 20 0 0 1 541.1148 922.232A385.775 385.775 0 0 1 398.7192 767.5492A20 20 0 0 1 408.5341 740.2103L535.2614 684.6226A20 20 0 0 1 560.8344 693.3267A207.725 207.725 0 0 0 628.4712 766.7998A20 20 0 0 1 635.0337 793.0043Z" fill="#97c6b3" stroke="#fff" stroke-width="3" stroke-linejoin="bevel" class="zr1-cls-64"></path>
<path d="M553.8262 943.0625A11.87 11.87 0 0 1 537.4283 947.6791A409.515 409.515 0 0 1 501.2295 924.0292A11.87 11.87 0 0 1 498.8702 907.1579L498.8702 907.1579A11.87 11.87 0 0 1 515.2452 904.8681A385.775 385.775 0 0 0 549.3455 927.1469A11.87 11.87 0 0 1 553.8262 943.0625Z" fill="#b5d8cb" stroke="#fff" stroke-linejoin="bevel" class="zr1-cls-65"></path>
<path d="M498.8702 907.1579A11.87 11.87 0 0 1 481.9361 909.0125A409.515 409.515 0 0 1 450.1236 879.7271A11.87 11.87 0 0 1 450.5734 862.6976L450.5734 862.6976A11.87 11.87 0 0 1 467.1019 863.1342A385.775 385.775 0 0 0 497.0702 890.7219A11.87 11.87 0 0 1 498.8702 907.1579Z" fill="#cde5dd" stroke="#fff" stroke-linejoin="bevel" class="zr1-cls-66"></path>
<path d="M450.5734 862.6976A11.87 11.87 0 0 1 433.565 861.7396A409.515 409.515 0 0 1 407.0066 827.6175A11.87 11.87 0 0 1 410.2533 810.8943L410.2533 810.8943A11.87 11.87 0 0 1 426.4845 814.0454A385.775 385.775 0 0 0 451.5032 846.1895A11.87 11.87 0 0 1 450.5734 862.6976Z" fill="#dfece6" stroke="#fff" stroke-linejoin="bevel" class="zr1-cls-67"></path>
<path d="M410.2533 810.8943A11.87 11.87 0 0 1 393.6345 807.1499A409.515 409.515 0 0 1 373.0547 769.1217A11.87 11.87 0 0 1 379.0096 753.161L379.0096 753.161A11.87 11.87 0 0 1 394.5008 758.9407A385.775 385.775 0 0 0 413.8875 794.7644A11.87 11.87 0 0 1 410.2533 810.8943Z" fill="#e9f2ed" stroke="#fff" stroke-linejoin="bevel" class="zr1-cls-68"></path>
<path d="M408.5341 740.2103A20 20 0 0 1 381.7729 728.9153A385.775 385.775 0 0 1 364.4109 519.3876A20 20 0 0 1 388.9481 503.8419L523.0964 537.8128A20 20 0 0 1 537.9309 560.3888A207.725 207.725 0 0 0 546.1777 659.9128A20 20 0 0 1 535.2614 684.6226Z" fill="#8dbcc2" stroke="#fff" stroke-width="3" stroke-linejoin="bevel" class="zr1-cls-69"></path>
<path d="M379.0096 753.161A11.87 11.87 0 0 1 363.2338 746.7323A409.515 409.515 0 0 1 336.075 639.485A11.87 11.87 0 0 1 346.8898 626.3226L346.8898 626.3226A11.87 11.87 0 0 1 359.6649 636.8192A385.775 385.775 0 0 0 385.2492 737.8493A11.87 11.87 0 0 1 379.0096 753.161Z" fill="#b0d2d7" stroke="#fff" stroke-linejoin="bevel" class="zr1-cls-70"></path>
<path d="M346.8898 626.3226A11.87 11.87 0 0 1 334.0561 615.1198A409.515 409.515 0 0 1 343.1921 504.8651A11.87 11.87 0 0 1 357.6946 495.9274L357.6946 495.9274A11.87 11.87 0 0 1 366.3693 510.0033A385.775 385.775 0 0 0 357.763 613.8665A11.87 11.87 0 0 1 346.8898 626.3226Z" fill="#cde6e9" stroke="#fff" stroke-linejoin="bevel" class="zr1-cls-71"></path>
<path d="M388.9481 503.8419A20 20 0 0 1 374.7672 478.4914A385.775 385.775 0 0 1 489.7608 302.4807A20 20 0 0 1 518.6724 305.2839L603.6689 414.4874A20 20 0 0 1 601.509 441.4146A207.725 207.725 0 0 0 546.888 525.0183A20 20 0 0 1 523.0964 537.8128Z" fill="#9cafc7" stroke="#fff" stroke-width="3" stroke-linejoin="bevel" class="zr1-cls-72"></path>
<path d="M357.6946 495.9274A11.87 11.87 0 0 1 349.1939 481.1645A409.515 409.515 0 0 1 372.7323 418.5589A11.87 11.87 0 0 1 388.8536 413.0534L388.8536 413.0534A11.87 11.87 0 0 1 394.1971 428.7004A385.775 385.775 0 0 0 372.0232 487.6767A11.87 11.87 0 0 1 357.6946 495.9274Z" fill="#bbcfe0" stroke="#fff" stroke-linejoin="bevel" class="zr1-cls-73"></path>
<path d="M388.8536 413.0534A11.87 11.87 0 0 1 383.8318 396.775A409.515 409.515 0 0 1 420.6453 340.9333A11.87 11.87 0 0 1 437.5853 339.1331L437.5853 339.1331A11.87 11.87 0 0 1 439.3325 355.5748A385.775 385.775 0 0 0 404.6531 408.1793A11.87 11.87 0 0 1 388.8536 413.0534Z" fill="#d5e3ec" stroke="#fff" stroke-linejoin="bevel" class="zr1-cls-74"></path>
<path d="M437.5853 339.1331A11.87 11.87 0 0 1 436.2916 322.1469A409.515 409.515 0 0 1 481.9361 277.9875A11.87 11.87 0 0 1 498.8702 279.8421L498.8702 279.8421A11.87 11.87 0 0 1 497.0702 296.2781A385.775 385.775 0 0 0 454.0718 337.8775A11.87 11.87 0 0 1 437.5853 339.1331Z" fill="#e6edf5" stroke="#fff" stroke-linejoin="bevel" class="zr1-cls-75"></path>
<path d="M518.6724 305.2839A20 20 0 0 1 523.0524 276.5688A385.775 385.775 0 0 1 721.9064 208.3021A20 20 0 0 1 743 228.2722L743 366.655A20 20 0 0 1 724.7565 386.5777A207.725 207.725 0 0 0 630.3024 419.0038A20 20 0 0 1 603.6689 414.4874Z" fill="#a7b0c9" stroke="#fff" stroke-width="3" stroke-linejoin="bevel" class="zr1-cls-76"></path>
<path d="M498.8702 279.8421A11.87 11.87 0 0 1 501.2295 262.9708A409.515 409.515 0 0 1 537.4283 239.3209A11.87 11.87 0 0 1 553.8262 243.9375L553.8262 243.9375A11.87 11.87 0 0 1 549.3455 259.8531A385.775 385.775 0 0 0 515.2452 282.1319A11.87 11.87 0 0 1 498.8702 279.8421Z" fill="#c0c9dd" stroke="#fff" stroke-linejoin="bevel" class="zr1-cls-77"></path>
<path d="M553.8262 243.9375A11.87 11.87 0 0 1 558.9302 227.6847A409.515 409.515 0 0 1 598.528 210.3155A11.87 11.87 0 0 1 613.9424 217.5681L613.9424 217.5681A11.87 11.87 0 0 1 606.9032 232.5291A385.775 385.775 0 0 0 569.6009 248.8914A11.87 11.87 0 0 1 553.8262 243.9375Z" fill="#d5ddf2" stroke="#fff" stroke-linejoin="bevel" class="zr1-cls-78"></path>
<path d="M613.9424 217.5681A11.87 11.87 0 0 1 621.6519 202.377A409.515 409.515 0 0 1 663.5685 191.7623A11.87 11.87 0 0 1 677.579 201.4531L677.579 201.4531A11.87 11.87 0 0 1 668.1732 215.0515A385.775 385.775 0 0 0 628.6866 225.0508A11.87 11.87 0 0 1 613.9424 217.5681Z" fill="#e4e9f8" stroke="#fff" stroke-linejoin="bevel" class="zr1-cls-79"></path>
<path d="M677.579 201.4531A11.87 11.87 0 0 1 687.6837 187.7382A409.515 409.515 0 0 1 730.7757 184.1675A11.87 11.87 0 0 1 743 196.0322L743 196.0322A11.87 11.87 0 0 1 731.4843 207.8969A385.775 385.775 0 0 0 690.8904 211.2606A11.87 11.87 0 0 1 677.579 201.4531Z" fill="#edf1fb" stroke="#fff" stroke-linejoin="bevel" class="zr1-cls-68"></path>
<text dominant-baseline="central" text-anchor="middle" style="font-size:28px;font-family:Microsoft YaHei;font-weight:600;" xml:space="preserve" y="-14" transform="matrix(0.677,0.736,-0.736,0.677,836.8802,507.0772)" fill="#ffffff">L1: Perception &amp;</text>
<text dominant-baseline="central" text-anchor="middle" style="font-size:28px;font-family:Microsoft YaHei;font-weight:600;" y="14" transform="matrix(0.677,0.736,-0.736,0.677,836.8802,507.0772)" fill="#ffffff">Aggregation</text>
<text dominant-baseline="central" text-anchor="middle" style="font-size:24px;font-family:Microsoft YaHei;" transform="matrix(0.916,0.402,-0.402,0.916,862.2031,321.7443)" fill="#222" stroke="#fff" stroke-width="2" paint-order="stroke" stroke-miterlimit="2">Visual-Only</text>
<text dominant-baseline="central" text-anchor="start" style="font-size:18px;font-family:Microsoft YaHei;" x="6" transform="matrix(0.136,-0.991,0.991,0.136,799.3693,182.8357)" fill="#111" stroke="#fff" stroke-width="4" paint-order="stroke" stroke-miterlimit="2">Recognition</text>
<text dominant-baseline="central" text-anchor="start" style="font-size:18px;font-family:Microsoft YaHei;" x="6" y="-9" transform="matrix(0.398,-0.917,0.917,0.398,907.9382,213.2132)" fill="#111" stroke="#fff" stroke-width="4" paint-order="stroke" stroke-miterlimit="2">Spatial</text>
<text dominant-baseline="central" text-anchor="start" style="font-size:18px;font-family:Microsoft YaHei;" x="6" y="9" transform="matrix(0.398,-0.917,0.917,0.398,907.9382,213.2132)" fill="#111" stroke="#fff" stroke-width="4" paint-order="stroke" stroke-miterlimit="2">Counting</text>
<text dominant-baseline="central" text-anchor="start" style="font-size:18px;font-family:Microsoft YaHei;" x="6" y="-9" transform="matrix(0.634,-0.774,0.774,0.634,1005.6343,272.804)" fill="#111" stroke="#fff" stroke-width="4" paint-order="stroke" stroke-miterlimit="2">Visual</text>
<text dominant-baseline="central" text-anchor="start" style="font-size:18px;font-family:Microsoft YaHei;" x="6" y="9" transform="matrix(0.634,-0.774,0.774,0.634,1005.6343,272.804)" fill="#111" stroke="#fff" stroke-width="4" paint-order="stroke" stroke-miterlimit="2">Calculation</text>
<text dominant-baseline="central" text-anchor="middle" style="font-size:24px;font-family:Microsoft YaHei;" y="-12" transform="matrix(0.325,0.946,-0.946,0.325,1023.6713,497.1454)" fill="#222" stroke="#fff" stroke-width="2" paint-order="stroke" stroke-miterlimit="2">Audio-Visual</text>
<text dominant-baseline="central" text-anchor="middle" style="font-size:24px;font-family:Microsoft YaHei;" y="12" transform="matrix(0.325,0.946,-0.946,0.325,1023.6713,497.1454)" fill="#222" stroke="#fff" stroke-width="2" paint-order="stroke" stroke-miterlimit="2">Fusion</text>
<text dominant-baseline="central" text-anchor="start" style="font-size:18px;font-family:Microsoft YaHei;" x="6" y="-9" transform="matrix(0.821,-0.571,0.571,0.821,1083.3135,356.8369)" fill="#111" stroke="#fff" stroke-width="4" paint-order="stroke" stroke-miterlimit="2">Cross-Modal</text>
<text dominant-baseline="central" text-anchor="start" style="font-size:18px;font-family:Microsoft YaHei;" x="6" y="9" transform="matrix(0.821,-0.571,0.571,0.821,1083.3135,356.8369)" fill="#111" stroke="#fff" stroke-width="4" paint-order="stroke" stroke-miterlimit="2">Matching</text>
<text dominant-baseline="central" text-anchor="start" style="font-size:18px;font-family:Microsoft YaHei;" x="6" y="-9" transform="matrix(0.944,-0.329,0.329,0.944,1134.4957,457.2877)" fill="#111" stroke="#fff" stroke-width="4" paint-order="stroke" stroke-miterlimit="2">Audio→Visual</text>
<text dominant-baseline="central" text-anchor="start" style="font-size:18px;font-family:Microsoft YaHei;" x="6" y="9" transform="matrix(0.944,-0.329,0.329,0.944,1134.4957,457.2877)" fill="#111" stroke="#fff" stroke-width="4" paint-order="stroke" stroke-miterlimit="2">QA</text>
<text dominant-baseline="central" text-anchor="start" style="font-size:18px;font-family:Microsoft YaHei;" x="6" y="-9" transform="matrix(0.998,-0.058,0.058,0.998,1156.8211,569.5248)" fill="#111" stroke="#fff" stroke-width="4" paint-order="stroke" stroke-miterlimit="2">Visual→Audio</text>
<text dominant-baseline="central" text-anchor="start" style="font-size:18px;font-family:Microsoft YaHei;" x="6" y="9" transform="matrix(0.998,-0.058,0.058,0.998,1156.8211,569.5248)" fill="#111" stroke="#fff" stroke-width="4" paint-order="stroke" stroke-miterlimit="2">QA</text>
<text dominant-baseline="central" text-anchor="middle" style="font-size:28px;font-family:Microsoft YaHei;font-weight:600;" xml:space="preserve" y="-14" transform="matrix(0.879,-0.476,0.476,0.879,803.7321,705.723)" fill="#ffffff">L2: Temporal</text>
<text dominant-baseline="central" text-anchor="middle" style="font-size:28px;font-family:Microsoft YaHei;font-weight:600;" y="14" transform="matrix(0.879,-0.476,0.476,0.879,803.7321,705.723)" fill="#ffffff">Understanding</text>
<text dominant-baseline="central" text-anchor="middle" style="font-size:24px;font-family:Microsoft YaHei;" xml:space="preserve" y="-12" transform="matrix(0.402,-0.916,0.916,0.402,1014.7557,712.7031)" fill="#222" stroke="#fff" stroke-width="2" paint-order="stroke" stroke-miterlimit="2">Action &amp;</text>
<text dominant-baseline="central" text-anchor="middle" style="font-size:24px;font-family:Microsoft YaHei;" y="12" transform="matrix(0.402,-0.916,0.916,0.402,1014.7557,712.7031)" fill="#222" stroke="#fff" stroke-width="2" paint-order="stroke" stroke-miterlimit="2">Motion</text>
<text dominant-baseline="central" text-anchor="start" style="font-size:18px;font-family:Microsoft YaHei;" x="6" y="-9" transform="matrix(0.986,0.165,-0.165,0.986,1151.8616,661.7269)" fill="#111" stroke="#fff" stroke-width="4" paint-order="stroke" stroke-miterlimit="2">Action</text>
<text dominant-baseline="central" text-anchor="start" style="font-size:18px;font-family:Microsoft YaHei;" x="6" y="9" transform="matrix(0.986,0.165,-0.165,0.986,1151.8616,661.7269)" fill="#111" stroke="#fff" stroke-width="4" paint-order="stroke" stroke-miterlimit="2">Recognition</text>
<text dominant-baseline="central" text-anchor="start" style="font-size:18px;font-family:Microsoft YaHei;" x="6" y="-9" transform="matrix(0.946,0.325,-0.325,0.946,1135.0554,728.0928)" fill="#111" stroke="#fff" stroke-width="4" paint-order="stroke" stroke-miterlimit="2">Repetitive</text>
<text dominant-baseline="central" text-anchor="start" style="font-size:18px;font-family:Microsoft YaHei;" x="6" y="9" transform="matrix(0.946,0.325,-0.325,0.946,1135.0554,728.0928)" fill="#111" stroke="#fff" stroke-width="4" paint-order="stroke" stroke-miterlimit="2">Counting</text>
<text dominant-baseline="central" text-anchor="start" style="font-size:18px;font-family:Microsoft YaHei;" x="6" y="-9" transform="matrix(0.879,0.476,-0.476,0.879,1107.5551,790.7873)" fill="#111" stroke="#fff" stroke-width="4" paint-order="stroke" stroke-miterlimit="2">Temporal</text>
<text dominant-baseline="central" text-anchor="start" style="font-size:18px;font-family:Microsoft YaHei;" x="6" y="9" transform="matrix(0.879,0.476,-0.476,0.879,1107.5551,790.7873)" fill="#111" stroke="#fff" stroke-width="4" paint-order="stroke" stroke-miterlimit="2">Localization</text>
<text dominant-baseline="central" text-anchor="start" style="font-size:18px;font-family:Microsoft YaHei;" x="6" y="-9" transform="matrix(0.789,0.614,-0.614,0.789,1070.1106,848.1004)" fill="#111" stroke="#fff" stroke-width="4" paint-order="stroke" stroke-miterlimit="2">Motion</text>
<text dominant-baseline="central" text-anchor="start" style="font-size:18px;font-family:Microsoft YaHei;" x="6" y="9" transform="matrix(0.789,0.614,-0.614,0.789,1070.1106,848.1004)" fill="#111" stroke="#fff" stroke-width="4" paint-order="stroke" stroke-miterlimit="2">Analysis</text>
<text dominant-baseline="central" text-anchor="middle" style="font-size:24px;font-family:Microsoft YaHei;" y="-12" transform="matrix(0.879,-0.476,0.476,0.879,884.2374,854.4838)" fill="#222" stroke="#fff" stroke-width="2" paint-order="stroke" stroke-miterlimit="2">Sequential</text>
<text dominant-baseline="central" text-anchor="middle" style="font-size:24px;font-family:Microsoft YaHei;" y="12" transform="matrix(0.879,-0.476,0.476,0.879,884.2374,854.4838)" fill="#222" stroke="#fff" stroke-width="2" paint-order="stroke" stroke-miterlimit="2">Reasoning</text>
<text dominant-baseline="central" text-anchor="start" style="font-size:18px;font-family:Microsoft YaHei;" x="6" transform="matrix(0.656,0.755,-0.755,0.656,1014.8026,906.4633)" fill="#111" stroke="#fff" stroke-width="4" paint-order="stroke" stroke-miterlimit="2">Ordering</text>
<text dominant-baseline="central" text-anchor="start" style="font-size:18px;font-family:Microsoft YaHei;" x="6" y="-9" transform="matrix(0.472,0.881,-0.881,0.472,938.7787,958.8675)" fill="#111" stroke="#fff" stroke-width="4" paint-order="stroke" stroke-miterlimit="2">State</text>
<text dominant-baseline="central" text-anchor="start" style="font-size:18px;font-family:Microsoft YaHei;" x="6" y="9" transform="matrix(0.472,0.881,-0.881,0.472,938.7787,958.8675)" fill="#111" stroke="#fff" stroke-width="4" paint-order="stroke" stroke-miterlimit="2">Change</text>
<text dominant-baseline="central" text-anchor="start" style="font-size:18px;font-family:Microsoft YaHei;" x="6" transform="matrix(0.269,0.963,-0.963,0.269,854.6913,992.6838)" fill="#111" stroke="#fff" stroke-width="4" paint-order="stroke" stroke-miterlimit="2">Periodicity</text>
<text dominant-baseline="central" text-anchor="middle" style="font-size:24px;font-family:Microsoft YaHei;" y="-12" transform="matrix(0.986,0.165,-0.165,0.986,694.1566,886.2027)" fill="#222" stroke="#fff" stroke-width="2" paint-order="stroke" stroke-miterlimit="2">Event-Level</text>
<text dominant-baseline="central" text-anchor="middle" style="font-size:24px;font-family:Microsoft YaHei;" y="12" transform="matrix(0.986,0.165,-0.165,0.986,694.1566,886.2027)" fill="#222" stroke="#fff" stroke-width="2" paint-order="stroke" stroke-miterlimit="2">Temporal</text>
<text dominant-baseline="central" text-anchor="start" style="font-size:18px;font-family:Microsoft YaHei;" x="6" y="-9" transform="matrix(0,1,-1,0,743,1008.015)" fill="#111" stroke="#fff" stroke-width="4" paint-order="stroke" stroke-miterlimit="2">Causal</text>
<text dominant-baseline="central" text-anchor="start" style="font-size:18px;font-family:Microsoft YaHei;" x="6" y="9" transform="matrix(0,1,-1,0,743,1008.015)" fill="#111" stroke="#fff" stroke-width="4" paint-order="stroke" stroke-miterlimit="2">Reasoning</text>
<text dominant-baseline="central" text-anchor="end" style="font-size:18px;font-family:Microsoft YaHei;" x="-6" y="-9" transform="matrix(0.325,-0.946,0.946,0.325,608.4072,985.5554)" fill="#111" stroke="#fff" stroke-width="4" paint-order="stroke" stroke-miterlimit="2">Short-term</text>
<text dominant-baseline="central" text-anchor="end" style="font-size:18px;font-family:Microsoft YaHei;" x="-6" y="9" transform="matrix(0.325,-0.946,0.946,0.325,608.4072,985.5554)" fill="#111" stroke="#fff" stroke-width="4" paint-order="stroke" stroke-miterlimit="2">Prediction</text>
<text dominant-baseline="central" text-anchor="middle" style="font-size:28px;font-family:Microsoft YaHei;font-weight:600;" xml:space="preserve" y="-14" transform="matrix(0.245,-0.969,0.969,0.245,619.3021,562.1754)" fill="#ffffff">L3: Complex</text>
<text dominant-baseline="central" text-anchor="middle" style="font-size:28px;font-family:Microsoft YaHei;font-weight:600;" y="14" transform="matrix(0.245,-0.969,0.969,0.245,619.3021,562.1754)" fill="#ffffff">Reasoning</text>
<text dominant-baseline="central" text-anchor="middle" style="font-size:24px;font-family:Microsoft YaHei;" y="-12" transform="matrix(0.677,0.736,-0.736,0.677,524.6739,794.4833)" fill="#222" stroke="#fff" stroke-width="2" paint-order="stroke" stroke-miterlimit="2">Narrative</text>
<text dominant-baseline="central" text-anchor="middle" style="font-size:24px;font-family:Microsoft YaHei;" y="12" transform="matrix(0.677,0.736,-0.736,0.677,524.6739,794.4833)" fill="#222" stroke="#fff" stroke-width="2" paint-order="stroke" stroke-miterlimit="2">Comprehension</text>
<text dominant-baseline="central" text-anchor="end" style="font-size:18px;font-family:Microsoft YaHei;" x="-6" y="-9" transform="matrix(0.547,-0.837,0.837,0.547,516.2818,940.5181)" fill="#111" stroke="#fff" stroke-width="4" paint-order="stroke" stroke-miterlimit="2">Turning</text>
<text dominant-baseline="central" text-anchor="end" style="font-size:18px;font-family:Microsoft YaHei;" x="-6" y="9" transform="matrix(0.547,-0.837,0.837,0.547,516.2818,940.5181)" fill="#111" stroke="#fff" stroke-width="4" paint-order="stroke" stroke-miterlimit="2">Point</text>
<text dominant-baseline="central" text-anchor="end" style="font-size:18px;font-family:Microsoft YaHei;" x="-6" y="-9" transform="matrix(0.677,-0.736,0.736,0.677,462.2566,898.4686)" fill="#111" stroke="#fff" stroke-width="4" paint-order="stroke" stroke-miterlimit="2">Narrative</text>
<text dominant-baseline="central" text-anchor="end" style="font-size:18px;font-family:Microsoft YaHei;" x="-6" y="9" transform="matrix(0.677,-0.736,0.736,0.677,462.2566,898.4686)" fill="#111" stroke="#fff" stroke-width="4" paint-order="stroke" stroke-miterlimit="2">Cloze</text>
<text dominant-baseline="central" text-anchor="end" style="font-size:18px;font-family:Microsoft YaHei;" x="-6" y="-9" transform="matrix(0.789,-0.614,0.614,0.789,415.8894,848.1004)" fill="#111" stroke="#fff" stroke-width="4" paint-order="stroke" stroke-miterlimit="2">Symbolic</text>
<text dominant-baseline="central" text-anchor="end" style="font-size:18px;font-family:Microsoft YaHei;" x="-6" y="9" transform="matrix(0.789,-0.614,0.614,0.789,415.8894,848.1004)" fill="#111" stroke="#fff" stroke-width="4" paint-order="stroke" stroke-miterlimit="2">Interpretation</text>
<text dominant-baseline="central" text-anchor="end" style="font-size:18px;font-family:Microsoft YaHei;" x="-6" y="-9" transform="matrix(0.879,-0.476,0.476,0.879,378.4449,790.7873)" fill="#111" stroke="#fff" stroke-width="4" paint-order="stroke" stroke-miterlimit="2">Cinematic</text>
<text dominant-baseline="central" text-anchor="end" style="font-size:18px;font-family:Microsoft YaHei;" x="-6" y="9" transform="matrix(0.879,-0.476,0.476,0.879,378.4449,790.7873)" fill="#111" stroke="#fff" stroke-width="4" paint-order="stroke" stroke-miterlimit="2">Technique</text>
<text dominant-baseline="central" text-anchor="middle" style="font-size:24px;font-family:Microsoft YaHei;" y="-12" transform="matrix(0.083,0.997,-0.997,0.083,447.2636,618.0054)" fill="#222" stroke="#fff" stroke-width="2" paint-order="stroke" stroke-miterlimit="2">Knowledge</text>
<text dominant-baseline="central" text-anchor="middle" style="font-size:24px;font-family:Microsoft YaHei;" y="12" transform="matrix(0.083,0.997,-0.997,0.083,447.2636,618.0054)" fill="#222" stroke="#fff" stroke-width="2" paint-order="stroke" stroke-miterlimit="2">Grounding</text>
<text dominant-baseline="central" text-anchor="end" style="font-size:18px;font-family:Microsoft YaHei;" x="-6" y="-9" transform="matrix(0.969,-0.245,0.245,0.969,341.169,695.2574)" fill="#111" stroke="#fff" stroke-width="4" paint-order="stroke" stroke-miterlimit="2">Concept</text>
<text dominant-baseline="central" text-anchor="end" style="font-size:18px;font-family:Microsoft YaHei;" x="-6" y="9" transform="matrix(0.969,-0.245,0.245,0.969,341.169,695.2574)" fill="#111" stroke="#fff" stroke-width="4" paint-order="stroke" stroke-miterlimit="2">Acquisition</text>
<text dominant-baseline="central" text-anchor="end" style="font-size:18px;font-family:Microsoft YaHei;" x="-6" y="-9" transform="matrix(0.997,0.083,-0.083,0.997,329.9008,559.2696)" fill="#111" stroke="#fff" stroke-width="4" paint-order="stroke" stroke-miterlimit="2">Skill</text>
<text dominant-baseline="central" text-anchor="end" style="font-size:18px;font-family:Microsoft YaHei;" x="-6" y="9" transform="matrix(0.997,0.083,-0.083,0.997,329.9008,559.2696)" fill="#111" stroke="#fff" stroke-width="4" paint-order="stroke" stroke-miterlimit="2">Learning</text>
<text dominant-baseline="central" text-anchor="middle" style="font-size:24px;font-family:Microsoft YaHei;" y="-12" transform="matrix(0.547,-0.837,0.837,0.547,494.5708,431.1931)" fill="#222" stroke="#fff" stroke-width="2" paint-order="stroke" stroke-miterlimit="2">Social</text>
<text dominant-baseline="central" text-anchor="middle" style="font-size:24px;font-family:Microsoft YaHei;" y="12" transform="matrix(0.547,-0.837,0.837,0.547,494.5708,431.1931)" fill="#222" stroke="#fff" stroke-width="2" paint-order="stroke" stroke-miterlimit="2">Intelligence</text>
<text dominant-baseline="central" text-anchor="end" style="font-size:18px;font-family:Microsoft YaHei;" x="-6" y="-9" transform="matrix(0.936,0.352,-0.352,0.936,355.0027,447.6207)" fill="#111" stroke="#fff" stroke-width="4" paint-order="stroke" stroke-miterlimit="2">Individual</text>
<text dominant-baseline="central" text-anchor="end" style="font-size:18px;font-family:Microsoft YaHei;" x="-6" y="9" transform="matrix(0.936,0.352,-0.352,0.936,355.0027,447.6207)" fill="#111" stroke="#fff" stroke-width="4" paint-order="stroke" stroke-miterlimit="2">Cognition</text>
<text dominant-baseline="central" text-anchor="end" style="font-size:18px;font-family:Microsoft YaHei;" x="-6" y="-9" transform="matrix(0.835,0.55,-0.55,0.835,396.9221,365.3493)" fill="#111" stroke="#fff" stroke-width="4" paint-order="stroke" stroke-miterlimit="2">Dyadic</text>
<text dominant-baseline="central" text-anchor="end" style="font-size:18px;font-family:Microsoft YaHei;" x="-6" y="9" transform="matrix(0.835,0.55,-0.55,0.835,396.9221,365.3493)" fill="#111" stroke="#fff" stroke-width="4" paint-order="stroke" stroke-miterlimit="2">Interaction</text>
<text dominant-baseline="central" text-anchor="end" style="font-size:18px;font-family:Microsoft YaHei;" x="-6" y="-9" transform="matrix(0.695,0.719,-0.719,0.695,454.7799,295.5875)" fill="#111" stroke="#fff" stroke-width="4" paint-order="stroke" stroke-miterlimit="2">Collective</text>
<text dominant-baseline="central" text-anchor="end" style="font-size:18px;font-family:Microsoft YaHei;" x="-6" y="9" transform="matrix(0.695,0.719,-0.719,0.695,454.7799,295.5875)" fill="#111" stroke="#fff" stroke-width="4" paint-order="stroke" stroke-miterlimit="2">Dynamics</text>
<text dominant-baseline="central" text-anchor="middle" style="font-size:24px;font-family:Microsoft YaHei;" xml:space="preserve" y="-12" transform="matrix(0.946,-0.325,0.325,0.946,646.6454,312.8287)" fill="#222" stroke="#fff" stroke-width="2" paint-order="stroke" stroke-miterlimit="2">Physical &amp;</text>
<text dominant-baseline="central" text-anchor="middle" style="font-size:24px;font-family:Microsoft YaHei;" y="12" transform="matrix(0.946,-0.325,0.325,0.946,646.6454,312.8287)" fill="#222" stroke="#fff" stroke-width="2" paint-order="stroke" stroke-miterlimit="2">Spatial</text>
<text dominant-baseline="central" text-anchor="end" style="font-size:18px;font-family:Microsoft YaHei;" x="-6" y="-9" transform="matrix(0.547,0.837,-0.837,0.547,516.2818,246.4819)" fill="#111" stroke="#fff" stroke-width="4" paint-order="stroke" stroke-miterlimit="2">Object</text>
<text dominant-baseline="central" text-anchor="end" style="font-size:18px;font-family:Microsoft YaHei;" x="-6" y="9" transform="matrix(0.547,0.837,-0.837,0.547,516.2818,246.4819)" fill="#111" stroke="#fff" stroke-width="4" paint-order="stroke" stroke-miterlimit="2">Permanence</text>
<text dominant-baseline="central" text-anchor="end" style="font-size:18px;font-family:Microsoft YaHei;" xml:space="preserve" x="-6" transform="matrix(0.402,0.916,-0.916,0.402,576.4912,213.8982)" fill="#111" stroke="#fff" stroke-width="4" paint-order="stroke" stroke-miterlimit="2">3D Spatial</text>
<text dominant-baseline="central" text-anchor="end" style="font-size:18px;font-family:Microsoft YaHei;" x="-6" transform="matrix(0.245,0.969,-0.969,0.245,641.2426,191.669)" fill="#111" stroke="#fff" stroke-width="4" paint-order="stroke" stroke-miterlimit="2">Counterfactual</text>
<text dominant-baseline="central" text-anchor="end" style="font-size:18px;font-family:Microsoft YaHei;" x="-6" transform="matrix(0.083,0.997,-0.997,0.083,708.7696,180.4008)" fill="#111" stroke="#fff" stroke-width="4" paint-order="stroke" stroke-miterlimit="2">Counterintuitive</text>
<defs >
<filter id="zr1-s0" x="-100%" y="-100%" width="300%" height="300%">
<feDropShadow dx="0" dy="0" stdDeviation="3 3" flood-color="rgb(0,0,0)" flood-opacity="0.1"></feDropShadow>
</filter>
</defs>
<style ><![CDATA[
.zr1-cls-40:hover {
cursor:pointer;
fill:rgba(63,104,137,1);
}
.zr1-cls-41:hover {
cursor:pointer;
fill:rgba(117,169,215,1);
}
.zr1-cls-42:hover {
cursor:pointer;
fill:rgba(157,196,238,1);
}
.zr1-cls-43:hover {
cursor:pointer;
fill:rgba(196,229,255,1);
}
.zr1-cls-44:hover {
cursor:pointer;
fill:rgba(221,246,255,1);
}
.zr1-cls-45:hover {
cursor:pointer;
fill:rgba(240,255,255,1);
}
.zr1-cls-46:hover {
cursor:pointer;
fill:rgba(139,181,235,1);
}
.zr1-cls-47:hover {
cursor:pointer;
fill:rgba(179,217,255,1);
}
.zr1-cls-48:hover {
cursor:pointer;
fill:rgba(211,239,255,1);
}
.zr1-cls-49:hover {
cursor:pointer;
fill:rgba(234,253,255,1);
}
.zr1-cls-50:hover {
cursor:pointer;
fill:rgba(238,154,118,1);
}
.zr1-cls-51:hover {
cursor:pointer;
fill:rgba(247,178,148,1);
}
.zr1-cls-52:hover {
cursor:pointer;
fill:rgba(255,211,188,1);
}
.zr1-cls-53:hover {
cursor:pointer;
fill:rgba(255,234,216,1);
}
.zr1-cls-54:hover {
cursor:pointer;
fill:rgba(255,248,233,1);
}
.zr1-cls-55:hover {
cursor:pointer;
fill:rgba(255,251,242,1);
}
.zr1-cls-56:hover {
cursor:pointer;
fill:rgba(231,169,136,1);
}
.zr1-cls-57:hover {
cursor:pointer;
fill:rgba(250,199,174,1);
}
.zr1-cls-58:hover {
cursor:pointer;
fill:rgba(255,228,211,1);
}
.zr1-cls-59:hover {
cursor:pointer;
fill:rgba(255,247,231,1);
}
.zr1-cls-60:hover {
cursor:pointer;
fill:rgba(218,152,121,1);
}
.zr1-cls-61:hover {
cursor:pointer;
fill:rgba(245,193,170,1);
}
.zr1-cls-62:hover {
cursor:pointer;
fill:rgba(255,229,216,1);
}
.zr1-cls-63:hover {
cursor:pointer;
fill:rgba(139,201,181,1);
}
.zr1-cls-64:hover {
cursor:pointer;
fill:rgba(166,217,196,1);
}
.zr1-cls-65:hover {
cursor:pointer;
fill:rgba(199,237,223,1);
}
.zr1-cls-66:hover {
cursor:pointer;
fill:rgba(225,251,243,1);
}
.zr1-cls-67:hover {
cursor:pointer;
fill:rgba(245,255,253,1);
}
.zr1-cls-68:hover {
cursor:pointer;
fill:rgba(255,255,255,1);
}
.zr1-cls-69:hover {
cursor:pointer;
fill:rgba(155,206,213,1);
}
.zr1-cls-70:hover {
cursor:pointer;
fill:rgba(193,231,236,1);
}
.zr1-cls-71:hover {
cursor:pointer;
fill:rgba(225,253,255,1);
}
.zr1-cls-72:hover {
cursor:pointer;
fill:rgba(171,192,218,1);
}
.zr1-cls-73:hover {
cursor:pointer;
fill:rgba(205,227,246,1);
}
.zr1-cls-74:hover {
cursor:pointer;
fill:rgba(234,249,255,1);
}
.zr1-cls-75:hover {
cursor:pointer;
fill:rgba(253,255,255,1);
}
.zr1-cls-76:hover {
cursor:pointer;
fill:rgba(183,193,221,1);
}
.zr1-cls-77:hover {
cursor:pointer;
fill:rgba(211,221,243,1);
}
.zr1-cls-78:hover {
cursor:pointer;
fill:rgba(234,243,255,1);
}
.zr1-cls-79:hover {
cursor:pointer;
fill:rgba(250,255,255,1);
}

]]>

</style>
</svg>