<svg width="1179" height="998" xmlns="http://www.w3.org/2000/svg" xmlns:xlink="http://www.w3.org/1999/xlink" version="1.1" baseProfile="full" viewBox="0 0 1179 998">
<rect width="1179" height="998" x="0" y="0" fill="none"></rect>
<path d="M589.5 459.08A39.92 39.92 0 1 1 589.496 459.08Z" fill="#7ba3c4" stroke="#fff" stroke-width="3" stroke-linejoin="bevel" filter="url(#zr0-s0)" class="zr0-cls-32"></path>
<path d="M589.5 320.5171A20 20 0 0 1 611.7272 300.6415A199.6 199.6 0 0 1 771.2816 416.5645A20 20 0 0 1 759.2474 443.8457L643.2192 481.5456A20 20 0 0 1 621.1714 474.6992A39.92 39.92 0 0 0 602.8244 461.3693A20 20 0 0 1 589.5 442.5163Z" fill="rgb(155,196,224)" stroke="#fff" stroke-width="2" stroke-linejoin="bevel" class="zr0-cls-33"></path>
<path d="M589.5 170.3079A20 20 0 0 1 610.7147 150.3448A349.3 349.3 0 0 1 777.2713 204.4624A20 20 0 0 1 782.7004 233.0825L718.0412 322.0782A20 20 0 0 1 691.6276 327.5062A199.6 199.6 0 0 0 607.6785 300.2295A20 20 0 0 1 589.5 280.3126Z" fill="rgb(179,212,237)" stroke="#fff" stroke-width="3" stroke-linejoin="bevel" class="zr0-cls-34"></path>
<path d="M589.5 139.8586A9.98 9.98 0 0 1 599.7572 129.8825A369.26 369.26 0 0 1 655.45 135.6771A9.98 9.98 0 0 1 663.4338 147.5511L663.4338 147.5511A9.98 9.98 0 0 1 651.8851 155.3162A349.3 349.3 0 0 0 599.2028 149.8348A9.98 9.98 0 0 1 589.5 139.8586Z" fill="#cde4f5" stroke="#fff" stroke-linejoin="bevel" class="zr0-cls-35"></path>
<path d="M663.4338 147.5511A9.98 9.98 0 0 1 675.525 139.9002A369.26 369.26 0 0 1 728.832 157.0358A9.98 9.98 0 0 1 734.2004 170.299L734.2004 170.299A9.98 9.98 0 0 1 721.3005 175.5203A349.3 349.3 0 0 0 670.875 159.311A9.98 9.98 0 0 1 663.4338 147.5511Z" fill="#e0eef9" stroke="#fff" stroke-linejoin="bevel" class="zr0-cls-36"></path>
<path d="M734.2004 170.299A9.98 9.98 0 0 1 747.6077 165.3012A369.26 369.26 0 0 1 798.1636 194.3486A9.98 9.98 0 0 1 800.598 208.4485L800.598 208.4485A9.98 9.98 0 0 1 786.8845 210.8163A349.3 349.3 0 0 0 739.0613 183.3389A9.98 9.98 0 0 1 734.2004 170.299Z" fill="rgb(235,244,252)" stroke="#fff" stroke-linejoin="bevel" class="zr0-cls-37"></path>
<path d="M782.7004 233.0825A20 20 0 0 1 811.5974 229.4017A349.3 349.3 0 0 1 914.5351 371.0832A20 20 0 0 1 902.1048 397.4286L797.484 431.4219A20 20 0 0 1 772.9245 420.2878A199.6 199.6 0 0 0 721.0411 348.8764A20 20 0 0 1 718.0412 322.0782Z" fill="#a8cce8" stroke="#fff" stroke-width="3" stroke-linejoin="bevel" class="zr0-cls-38"></path>
<path d="M800.598 208.4485A9.98 9.98 0 0 1 814.7601 206.4067A369.26 369.26 0 0 1 843.2525 230.7416A9.98 9.98 0 0 1 843.4513 245.0487L843.4513 245.0487A9.98 9.98 0 0 1 829.5362 245.242A349.3 349.3 0 0 0 802.5839 222.2226A9.98 9.98 0 0 1 800.598 208.4485Z" fill="#c5dff2" stroke="#fff" stroke-linejoin="bevel" class="zr0-cls-39"></path>
<path d="M843.4513 245.0487A9.98 9.98 0 0 1 857.7584 245.2475A369.26 369.26 0 0 1 882.0933 273.7399A9.98 9.98 0 0 1 880.0515 287.902L880.0515 287.902A9.98 9.98 0 0 1 866.2774 285.9161A349.3 349.3 0 0 0 843.258 258.9638A9.98 9.98 0 0 1 843.4513 245.0487Z" fill="#dbeaf7" stroke="#fff" stroke-linejoin="bevel" class="zr0-cls-40"></path>
<path d="M880.0515 287.902A9.98 9.98 0 0 1 894.1514 290.3364A369.26 369.26 0 0 1 913.7294 322.2849A9.98 9.98 0 0 1 909.4973 335.9532L909.4973 335.9532A9.98 9.98 0 0 1 896.2035 331.8371A349.3 349.3 0 0 0 877.6837 301.6155A9.98 9.98 0 0 1 880.0515 287.902Z" fill="#e8f2fa" stroke="#fff" stroke-linejoin="bevel" class="zr0-cls-37"></path>
<path d="M909.4973 335.9532A9.98 9.98 0 0 1 923.0428 340.5634A369.26 369.26 0 0 1 937.382 375.1812A9.98 9.98 0 0 1 931.0637 388.0192L931.0637 388.0192A9.98 9.98 0 0 1 918.5775 381.8741A349.3 349.3 0 0 0 905.0135 349.1275A9.98 9.98 0 0 1 909.4973 335.9532Z" fill="#f2f7fc" stroke="#fff" stroke-linejoin="bevel" class="zr0-cls-37"></path>
<path d="M759.2474 443.8457A20 20 0 0 1 785.0188 458.8431A199.6 199.6 0 0 1 490.8899 672.5402A20 20 0 0 1 484.5904 643.3957L556.2997 544.6963A20 20 0 0 1 578.161 537.2757A39.92 39.92 0 0 0 629.4064 500.0438A20 20 0 0 1 643.2192 481.5456Z" fill="rgb(232,184,163)" stroke="#fff" stroke-width="2" stroke-linejoin="bevel" class="zr0-cls-41"></path>
<path d="M902.1048 397.4286A20 20 0 0 1 927.6465 411.436A349.3 349.3 0 0 1 927.6465 586.564A20 20 0 0 1 902.1048 600.5714L797.484 566.5781A20 20 0 0 1 784.1594 543.1347A199.6 199.6 0 0 0 784.1594 454.8653A20 20 0 0 1 797.484 431.4219Z" fill="#efc9b8" stroke="#fff" stroke-width="3" stroke-linejoin="bevel" class="zr0-cls-42"></path>
<path d="M931.0637 388.0192A9.98 9.98 0 0 1 943.7213 394.6916A369.26 369.26 0 0 1 950.1574 419.7587A9.98 9.98 0 0 1 942.28 431.7036L942.28 431.7036A9.98 9.98 0 0 1 930.6624 424.042A349.3 349.3 0 0 0 924.5742 400.3299A9.98 9.98 0 0 1 931.0637 388.0192Z" fill="#f3d9cd" stroke="#fff" stroke-linejoin="bevel" class="zr0-cls-43"></path>
<path d="M942.28 431.7036A9.98 9.98 0 0 1 954.0014 439.9098A369.26 369.26 0 0 1 957.2451 465.5859A9.98 9.98 0 0 1 947.9327 476.4493L947.9327 476.4493A9.98 9.98 0 0 1 937.367 467.3921A349.3 349.3 0 0 0 934.2987 443.1039A9.98 9.98 0 0 1 942.28 431.7036Z" fill="#f7e5dc" stroke="#fff" stroke-linejoin="bevel" class="zr0-cls-44"></path>
<path d="M947.9327 476.4493A9.98 9.98 0 0 1 958.5332 486.0599A369.26 369.26 0 0 1 958.5332 511.9401A9.98 9.98 0 0 1 947.9327 521.5507L947.9327 521.5507A9.98 9.98 0 0 1 938.5855 511.2406A349.3 349.3 0 0 0 938.5855 486.7594A9.98 9.98 0 0 1 947.9327 476.4493Z" fill="#f9ece5" stroke="#fff" stroke-linejoin="bevel" class="zr0-cls-45"></path>
<path d="M947.9327 521.5507A9.98 9.98 0 0 1 957.2451 532.4141A369.26 369.26 0 0 1 954.0014 558.0902A9.98 9.98 0 0 1 942.28 566.2964L942.28 566.2964A9.98 9.98 0 0 1 934.2987 554.8961A349.3 349.3 0 0 0 937.367 530.6079A9.98 9.98 0 0 1 947.9327 521.5507Z" fill="#fbf2ed" stroke="#fff" stroke-linejoin="bevel" class="zr0-cls-37"></path>
<path d="M942.28 566.2964A9.98 9.98 0 0 1 950.1574 578.2413A369.26 369.26 0 0 1 943.7213 603.3084A9.98 9.98 0 0 1 931.0637 609.9808L931.0637 609.9808A9.98 9.98 0 0 1 924.5742 597.6701A349.3 349.3 0 0 0 930.6624 573.958A9.98 9.98 0 0 1 942.28 566.2964Z" fill="#fdf7f4" stroke="#fff" stroke-linejoin="bevel" class="zr0-cls-37"></path>
<path d="M902.1048 600.5714A20 20 0 0 1 914.5351 626.9167A349.3 349.3 0 0 1 811.5974 768.5983A20 20 0 0 1 782.7004 764.9175L718.0412 675.9218A20 20 0 0 1 721.0411 649.1236A199.6 199.6 0 0 0 772.9245 577.7122A20 20 0 0 1 797.484 566.5781Z" fill="#ecc4b0" stroke="#fff" stroke-width="3" stroke-linejoin="bevel" class="zr0-cls-46"></path>
<path d="M931.0637 609.9808A9.98 9.98 0 0 1 937.382 622.8188A369.26 369.26 0 0 1 914.661 673.9951A9.98 9.98 0 0 1 900.901 677.9189L900.901 677.9189A9.98 9.98 0 0 1 897.0847 664.5359A349.3 349.3 0 0 0 918.5775 616.1259A9.98 9.98 0 0 1 931.0637 609.9808Z" fill="#f4ddd2" stroke="#fff" stroke-linejoin="bevel" class="zr0-cls-47"></path>
<path d="M900.901 677.9189A9.98 9.98 0 0 1 904.441 691.7826A369.26 369.26 0 0 1 871.6714 737.1854A9.98 9.98 0 0 1 857.3983 738.1924L857.3983 738.1924A9.98 9.98 0 0 1 856.4189 724.3105A349.3 349.3 0 0 0 887.4171 681.3619A9.98 9.98 0 0 1 900.901 677.9189Z" fill="#f9ebe5" stroke="#fff" stroke-linejoin="bevel" class="zr0-cls-45"></path>
<path d="M857.3983 738.1924A9.98 9.98 0 0 1 858.0085 752.4879A369.26 369.26 0 0 1 814.7601 791.5933A9.98 9.98 0 0 1 800.598 789.5515L800.598 789.5515A9.98 9.98 0 0 1 802.5839 775.7774A349.3 349.3 0 0 0 843.4945 738.7859A9.98 9.98 0 0 1 857.3983 738.1924Z" fill="#fcf4f0" stroke="#fff" stroke-linejoin="bevel" class="zr0-cls-37"></path>
<path d="M782.7004 764.9175A20 20 0 0 1 777.2713 793.5376A349.3 349.3 0 0 1 610.7147 847.6552A20 20 0 0 1 589.5 827.6921L589.5 717.6874A20 20 0 0 1 607.6785 697.7705A199.6 199.6 0 0 0 691.6276 670.4938A20 20 0 0 1 718.0412 675.9218Z" fill="#e5beab" stroke="#fff" stroke-width="3" stroke-linejoin="bevel" class="zr0-cls-48"></path>
<path d="M800.598 789.5515A9.98 9.98 0 0 1 798.1636 803.6514A369.26 369.26 0 0 1 749.7012 831.6988A9.98 9.98 0 0 1 736.2628 826.7853L736.2628 826.7853A9.98 9.98 0 0 1 741.0417 813.7151A349.3 349.3 0 0 0 786.8845 787.1837A9.98 9.98 0 0 1 800.598 789.5515Z" fill="#f0d5c8" stroke="#fff" stroke-linejoin="bevel" class="zr0-cls-49"></path>
<path d="M736.2628 826.7853A9.98 9.98 0 0 1 730.9778 840.0821A369.26 369.26 0 0 1 677.7796 857.5522A9.98 9.98 0 0 1 665.6405 849.9774L665.6405 849.9774A9.98 9.98 0 0 1 673.0077 838.171A349.3 349.3 0 0 0 723.3304 821.6452A9.98 9.98 0 0 1 736.2628 826.7853Z" fill="#f6e6de" stroke="#fff" stroke-linejoin="bevel" class="zr0-cls-50"></path>
<path d="M665.6405 849.9774A9.98 9.98 0 0 1 657.7315 861.9014A369.26 369.26 0 0 1 599.7572 868.1175A9.98 9.98 0 0 1 589.5 858.1414L589.5 858.1414A9.98 9.98 0 0 1 599.2028 848.1652A349.3 349.3 0 0 0 654.0433 842.2851A9.98 9.98 0 0 1 665.6405 849.9774Z" fill="#faf0eb" stroke="#fff" stroke-linejoin="bevel" class="zr0-cls-37"></path>
<path d="M589.5 827.6921A20 20 0 0 1 568.2853 847.6552A349.3 349.3 0 0 1 401.7287 793.5376A20 20 0 0 1 396.2996 764.9175L460.9588 675.9218A20 20 0 0 1 487.3724 670.4938A199.6 199.6 0 0 0 571.3215 697.7705A20 20 0 0 1 589.5 717.6874Z" fill="#e2b6a2" stroke="#fff" stroke-width="3" stroke-linejoin="bevel" class="zr0-cls-51"></path>
<path d="M589.5 858.1414A9.98 9.98 0 0 1 579.2428 868.1175A369.26 369.26 0 0 1 485.1916 853.2213A9.98 9.98 0 0 1 478.5192 840.5637A9.98 9.98 0 0 1 490.8299 834.0742A349.3 349.3 0 0 0 579.7972 848.1652A9.98 9.98 0 0 1 589.5 858.1414Z" fill="#efd2c5" stroke="#fff" stroke-linejoin="bevel" class="zr0-cls-52"></path>
<path d="M478.5192 840.5637A9.98 9.98 0 0 1 465.6812 846.882A369.26 369.26 0 0 1 380.8364 803.6514A9.98 9.98 0 0 1 378.402 789.5515A9.98 9.98 0 0 1 392.1155 787.1837A349.3 349.3 0 0 0 472.3741 828.0775A9.98 9.98 0 0 1 478.5192 840.5637Z" fill="#f7e8e1" stroke="#fff" stroke-linejoin="bevel" class="zr0-cls-53"></path>
<path d="M484.5904 643.3957A20 20 0 0 1 454.9256 646.4106A199.6 199.6 0 0 1 567.2728 300.6415A20 20 0 0 1 589.5 320.5171L589.5 442.5163A20 20 0 0 1 576.1756 461.3693A39.92 39.92 0 0 0 556.6016 521.6119A20 20 0 0 1 556.2997 544.6963Z" fill="rgb(168,212,200)" stroke="#fff" stroke-width="2" stroke-linejoin="bevel" class="zr0-cls-54"></path>
<path d="M396.2996 764.9175A20 20 0 0 1 367.4026 768.5983A349.3 349.3 0 0 1 264.4649 626.9168A20 20 0 0 1 276.8952 600.5714L381.516 566.5781A20 20 0 0 1 406.0755 577.7122A199.6 199.6 0 0 0 457.9589 649.1236A20 20 0 0 1 460.9588 675.9218Z" fill="rgb(189,224,214)" stroke="#fff" stroke-width="3" stroke-linejoin="bevel" class="zr0-cls-55"></path>
<path d="M378.402 789.5515A9.98 9.98 0 0 1 364.2399 791.5933A369.26 369.26 0 0 1 335.7475 767.2584A9.98 9.98 0 0 1 335.5487 752.9513A9.98 9.98 0 0 1 349.4638 752.758A349.3 349.3 0 0 0 376.4161 775.7774A9.98 9.98 0 0 1 378.402 789.5515Z" fill="#d2ebe3" stroke="#fff" stroke-linejoin="bevel" class="zr0-cls-56"></path>
<path d="M335.5487 752.9513A9.98 9.98 0 0 1 321.2416 752.7525A369.26 369.26 0 0 1 296.9067 724.2601A9.98 9.98 0 0 1 298.9485 710.098A9.98 9.98 0 0 1 312.7226 712.0839A349.3 349.3 0 0 0 335.742 739.0362A9.98 9.98 0 0 1 335.5487 752.9513Z" fill="rgb(227,242,236)" stroke="#fff" stroke-linejoin="bevel" class="zr0-cls-57"></path>
<path d="M298.9485 710.098A9.98 9.98 0 0 1 284.8486 707.6636A369.26 369.26 0 0 1 265.2706 675.7151A9.98 9.98 0 0 1 269.5027 662.0468A9.98 9.98 0 0 1 282.7965 666.1629A349.3 349.3 0 0 0 301.3163 696.3845A9.98 9.98 0 0 1 298.9485 710.098Z" fill="#edf6f2" stroke="#fff" stroke-linejoin="bevel" class="zr0-cls-37"></path>
<path d="M269.5027 662.0468A9.98 9.98 0 0 1 255.9572 657.4366A369.26 369.26 0 0 1 241.618 622.8188A9.98 9.98 0 0 1 247.9363 609.9808A9.98 9.98 0 0 1 260.4225 616.1259A349.3 349.3 0 0 0 273.9865 648.8725A9.98 9.98 0 0 1 269.5027 662.0468Z" fill="#f4faf7" stroke="#fff" stroke-linejoin="bevel" class="zr0-cls-37"></path>
<path d="M276.8952 600.5714A20 20 0 0 1 251.3535 586.564A349.3 349.3 0 0 1 251.3535 411.436A20 20 0 0 1 276.8952 397.4286L381.516 431.4219A20 20 0 0 1 394.8406 454.8653A199.6 199.6 0 0 0 394.8406 543.1347A20 20 0 0 1 381.516 566.5781Z" fill="rgb(181,216,212)" stroke="#fff" stroke-width="3" stroke-linejoin="bevel" class="zr0-cls-58"></path>
<path d="M247.9363 609.9808A9.98 9.98 0 0 1 235.2787 603.3084A369.26 369.26 0 0 1 220.3825 509.2572A9.98 9.98 0 0 1 230.3586 499A9.98 9.98 0 0 1 240.3348 508.7028A349.3 349.3 0 0 0 254.4258 597.6701A9.98 9.98 0 0 1 247.9363 609.9808Z" fill="#cce8e5" stroke="#fff" stroke-linejoin="bevel" class="zr0-cls-59"></path>
<path d="M230.3586 499A9.98 9.98 0 0 1 220.3825 488.7428A369.26 369.26 0 0 1 235.2787 394.6916A9.98 9.98 0 0 1 247.9363 388.0192L247.9363 388.0192A9.98 9.98 0 0 1 254.4258 400.3299A349.3 349.3 0 0 0 240.3348 489.2972A9.98 9.98 0 0 1 230.3586 499Z" fill="#e3f2f1" stroke="#fff" stroke-linejoin="bevel" class="zr0-cls-57"></path>
<path d="M276.8952 397.4286A20 20 0 0 1 264.4649 371.0833A349.3 349.3 0 0 1 367.4026 229.4017A20 20 0 0 1 396.2996 233.0825L460.9588 322.0782A20 20 0 0 1 457.9589 348.8764A199.6 199.6 0 0 0 406.0755 420.2878A20 20 0 0 1 381.516 431.4219Z" fill="rgb(194,212,226)" stroke="#fff" stroke-width="3" stroke-linejoin="bevel" class="zr0-cls-60"></path>
<path d="M247.9363 388.0192A9.98 9.98 0 0 1 241.618 375.1812A369.26 369.26 0 0 1 264.339 324.0049A9.98 9.98 0 0 1 278.099 320.0811L278.099 320.0811A9.98 9.98 0 0 1 281.9153 333.4641A349.3 349.3 0 0 0 260.4225 381.8741A9.98 9.98 0 0 1 247.9363 388.0192Z" fill="#d8e6ef" stroke="#fff" stroke-linejoin="bevel" class="zr0-cls-61"></path>
<path d="M278.099 320.0811A9.98 9.98 0 0 1 274.559 306.2174A369.26 369.26 0 0 1 307.3286 260.8146A9.98 9.98 0 0 1 321.6017 259.8076L321.6017 259.8076A9.98 9.98 0 0 1 322.5811 273.6895A349.3 349.3 0 0 0 291.5829 316.6381A9.98 9.98 0 0 1 278.099 320.0811Z" fill="#e8f0f6" stroke="#fff" stroke-linejoin="bevel" class="zr0-cls-37"></path>
<path d="M321.6017 259.8076A9.98 9.98 0 0 1 320.9915 245.5121A369.26 369.26 0 0 1 364.2399 206.4067A9.98 9.98 0 0 1 378.402 208.4485L378.402 208.4485A9.98 9.98 0 0 1 376.4161 222.2226A349.3 349.3 0 0 0 335.5055 259.2141A9.98 9.98 0 0 1 321.6017 259.8076Z" fill="#f2f7fa" stroke="#fff" stroke-linejoin="bevel" class="zr0-cls-37"></path>
<path d="M396.2996 233.0825A20 20 0 0 1 401.7287 204.4624A349.3 349.3 0 0 1 568.2853 150.3448A20 20 0 0 1 589.5 170.3079L589.5 280.3126A20 20 0 0 1 571.3215 300.2295A199.6 199.6 0 0 0 487.3724 327.5062A20 20 0 0 1 460.9588 322.0782Z" fill="rgb(200,212,228)" stroke="#fff" stroke-width="3" stroke-linejoin="bevel" class="zr0-cls-62"></path>
<path d="M378.402 208.4485A9.98 9.98 0 0 1 380.8364 194.3486A369.26 369.26 0 0 1 412.7849 174.7706A9.98 9.98 0 0 1 426.4532 179.0027L426.4532 179.0027A9.98 9.98 0 0 1 422.3371 192.2965A349.3 349.3 0 0 0 392.1155 210.8163A9.98 9.98 0 0 1 378.402 208.4485Z" fill="#dce4ef" stroke="#fff" stroke-linejoin="bevel" class="zr0-cls-63"></path>
<path d="M426.4532 179.0027A9.98 9.98 0 0 1 431.0634 165.4572A369.26 369.26 0 0 1 465.6812 151.118A9.98 9.98 0 0 1 478.5192 157.4363L478.5192 157.4363A9.98 9.98 0 0 1 472.3741 169.9225A349.3 349.3 0 0 0 439.6275 183.4865A9.98 9.98 0 0 1 426.4532 179.0027Z" fill="rgb(232,238,246)" stroke="#fff" stroke-linejoin="bevel" class="zr0-cls-37"></path>
<path d="M478.5192 157.4363A9.98 9.98 0 0 1 485.1916 144.7787A369.26 369.26 0 0 1 521.6264 136.0315A9.98 9.98 0 0 1 533.3179 144.2803L533.3179 144.2803A9.98 9.98 0 0 1 525.2952 155.6514A349.3 349.3 0 0 0 490.8299 163.9258A9.98 9.98 0 0 1 478.5192 157.4363Z" fill="rgb(242,245,250)" stroke="#fff" stroke-linejoin="bevel" class="zr0-cls-37"></path>
<path d="M533.3179 144.2803A9.98 9.98 0 0 1 541.8882 132.8224A369.26 369.26 0 0 1 579.2428 129.8825A9.98 9.98 0 0 1 589.5 139.8586L589.5 139.8586A9.98 9.98 0 0 1 579.7972 149.8348A349.3 349.3 0 0 0 544.4618 152.6157A9.98 9.98 0 0 1 533.3179 144.2803Z" fill="#f8fafc" stroke="#fff" stroke-linejoin="bevel" class="zr0-cls-37"></path>
<text dominant-baseline="central" text-anchor="middle" style="font-size:22px;font-family:Microsoft YaHei;font-weight:600;" xml:space="preserve" y="-11" transform="matrix(0.809,0.588,-0.588,0.809,659.8932,402.1121)" fill="#2c3e50">L1: Retrieval &amp;</text>
<text dominant-baseline="central" text-anchor="middle" style="font-size:22px;font-family:Microsoft YaHei;font-weight:600;" y="11" transform="matrix(0.809,0.588,-0.588,0.809,659.8932,402.1121)" fill="#2c3e50">Aggregation</text>
<text dominant-baseline="central" text-anchor="middle" style="font-size:20px;font-family:Microsoft YaHei;" transform="matrix(0.951,0.309,-0.309,0.951,674.3097,237.9825)" fill="#333" stroke="#fff" stroke-width="2" paint-order="stroke" stroke-miterlimit="2">Frame-Only</text>
<text dominant-baseline="central" text-anchor="start" style="font-size:13px;font-family:Microsoft YaHei;" xml:space="preserve" x="6" transform="matrix(0.103,-0.995,0.995,0.103,628.231,126.7495)" fill="#333" stroke="#fff" stroke-width="2" paint-order="stroke" stroke-miterlimit="2">Visual Recognition</text>
<text dominant-baseline="central" text-anchor="start" style="font-size:13px;font-family:Microsoft YaHei;" xml:space="preserve" x="6" transform="matrix(0.306,-0.952,0.952,0.306,704.0339,142.696)" fill="#333" stroke="#fff" stroke-width="2" paint-order="stroke" stroke-miterlimit="2">Basic Counting</text>
<text dominant-baseline="central" text-anchor="start" style="font-size:13px;font-family:Microsoft YaHei;" xml:space="preserve" x="6" transform="matrix(0.498,-0.867,0.867,0.498,775.9508,174.4901)" fill="#333" stroke="#fff" stroke-width="2" paint-order="stroke" stroke-miterlimit="2">Numerical Calculation</text>
<text dominant-baseline="central" text-anchor="middle" style="font-size:20px;font-family:Microsoft YaHei;" xml:space="preserve" transform="matrix(0.588,0.809,-0.809,0.588,811.5347,337.6823)" fill="#333" stroke="#fff" stroke-width="2" paint-order="stroke" stroke-miterlimit="2">Frames &amp; Audio</text>
<text dominant-baseline="central" text-anchor="start" style="font-size:13px;font-family:Microsoft YaHei;" xml:space="preserve" x="6" y="-6.5" transform="matrix(0.649,-0.76,0.76,0.649,832.5624,214.4105)" fill="#333" stroke="#fff" stroke-width="2" paint-order="stroke" stroke-miterlimit="2">Cross-Modal Semantic</text>
<text dominant-baseline="central" text-anchor="start" style="font-size:13px;font-family:Microsoft YaHei;" x="6" y="6.5" transform="matrix(0.649,-0.76,0.76,0.649,832.5624,214.4105)" fill="#333" stroke="#fff" stroke-width="2" paint-order="stroke" stroke-miterlimit="2">Consistency</text>
<text dominant-baseline="central" text-anchor="start" style="font-size:13px;font-family:Microsoft YaHei;" xml:space="preserve" x="6" y="-6.5" transform="matrix(0.76,-0.649,0.649,0.76,874.0895,255.9376)" fill="#333" stroke="#fff" stroke-width="2" paint-order="stroke" stroke-miterlimit="2">Audio-Guided Visual</text>
<text dominant-baseline="central" text-anchor="start" style="font-size:13px;font-family:Microsoft YaHei;" x="6" y="6.5" transform="matrix(0.76,-0.649,0.649,0.76,874.0895,255.9376)" fill="#333" stroke="#fff" stroke-width="2" paint-order="stroke" stroke-miterlimit="2">Description</text>
<text dominant-baseline="central" text-anchor="start" style="font-size:13px;font-family:Microsoft YaHei;" xml:space="preserve" x="6" y="-6.5" transform="matrix(0.853,-0.522,0.522,0.853,908.6091,303.4497)" fill="#333" stroke="#fff" stroke-width="2" paint-order="stroke" stroke-miterlimit="2">Vision-Guided Audio</text>
<text dominant-baseline="central" text-anchor="start" style="font-size:13px;font-family:Microsoft YaHei;" x="6" y="6.5" transform="matrix(0.853,-0.522,0.522,0.853,908.6091,303.4497)" fill="#333" stroke="#fff" stroke-width="2" paint-order="stroke" stroke-miterlimit="2">Description</text>
<text dominant-baseline="central" text-anchor="start" style="font-size:13px;font-family:Microsoft YaHei;" x="6" y="-6.5" transform="matrix(0.924,-0.383,0.383,0.924,935.2712,355.7769)" fill="#333" stroke="#fff" stroke-width="2" paint-order="stroke" stroke-miterlimit="2">Visual-Audio</text>
<text dominant-baseline="central" text-anchor="start" style="font-size:13px;font-family:Microsoft YaHei;" xml:space="preserve" x="6" y="6.5" transform="matrix(0.924,-0.383,0.383,0.924,935.2712,355.7769)" fill="#333" stroke="#fff" stroke-width="2" paint-order="stroke" stroke-miterlimit="2">Collaborative Reasoning</text>
<text dominant-baseline="central" text-anchor="middle" style="font-size:22px;font-family:Microsoft YaHei;font-weight:600;" xml:space="preserve" y="-11" transform="matrix(0.809,-0.588,0.588,0.809,659.8932,595.8879)" fill="#2c3e50">L2: Temporal</text>
<text dominant-baseline="central" text-anchor="middle" style="font-size:22px;font-family:Microsoft YaHei;font-weight:600;" y="11" transform="matrix(0.809,-0.588,0.588,0.809,659.8932,595.8879)" fill="#2c3e50">Understanding</text>
<text dominant-baseline="central" text-anchor="middle" style="font-size:20px;font-family:Microsoft YaHei;" xml:space="preserve" y="-10" transform="matrix(0,-1,1,0,863.95,499)" fill="#333" stroke="#fff" stroke-width="2" paint-order="stroke" stroke-miterlimit="2">Action &amp;</text>
<text dominant-baseline="central" text-anchor="middle" style="font-size:20px;font-family:Microsoft YaHei;" y="10" transform="matrix(0,-1,1,0,863.95,499)" fill="#333" stroke="#fff" stroke-width="2" paint-order="stroke" stroke-miterlimit="2">Motion</text>
<text dominant-baseline="central" text-anchor="start" style="font-size:13px;font-family:Microsoft YaHei;" xml:space="preserve" x="6" y="-6.5" transform="matrix(0.969,-0.249,0.249,0.969,952.0019,405.9253)" fill="#333" stroke="#fff" stroke-width="2" paint-order="stroke" stroke-miterlimit="2">Fine-Grained Action</text>
<text dominant-baseline="central" text-anchor="start" style="font-size:13px;font-family:Microsoft YaHei;" x="6" y="6.5" transform="matrix(0.969,-0.249,0.249,0.969,952.0019,405.9253)" fill="#333" stroke="#fff" stroke-width="2" paint-order="stroke" stroke-miterlimit="2">Recognition</text>
<text dominant-baseline="central" text-anchor="start" style="font-size:13px;font-family:Microsoft YaHei;" xml:space="preserve" x="6" y="-6.5" transform="matrix(0.992,-0.125,0.125,0.992,960.8088,452.0928)" fill="#333" stroke="#fff" stroke-width="2" paint-order="stroke" stroke-miterlimit="2">Repetitive Action</text>
<text dominant-baseline="central" text-anchor="start" style="font-size:13px;font-family:Microsoft YaHei;" x="6" y="6.5" transform="matrix(0.992,-0.125,0.125,0.992,960.8088,452.0928)" fill="#333" stroke="#fff" stroke-width="2" paint-order="stroke" stroke-miterlimit="2">Counting</text>
<text dominant-baseline="central" text-anchor="start" style="font-size:13px;font-family:Microsoft YaHei;" xml:space="preserve" x="6" y="-6.5" transform="translate(963.76 499)" fill="#333" stroke="#fff" stroke-width="2" paint-order="stroke" stroke-miterlimit="2">Temporal Action</text>
<text dominant-baseline="central" text-anchor="start" style="font-size:13px;font-family:Microsoft YaHei;" x="6" y="6.5" transform="translate(963.76 499)" fill="#333" stroke="#fff" stroke-width="2" paint-order="stroke" stroke-miterlimit="2">Localization</text>
<text dominant-baseline="central" text-anchor="start" style="font-size:13px;font-family:Microsoft YaHei;" xml:space="preserve" x="6" y="-6.5" transform="matrix(0.992,0.125,-0.125,0.992,960.8088,545.9072)" fill="#333" stroke="#fff" stroke-width="2" paint-order="stroke" stroke-miterlimit="2">Motion Trajectory</text>
<text dominant-baseline="central" text-anchor="start" style="font-size:13px;font-family:Microsoft YaHei;" x="6" y="6.5" transform="matrix(0.992,0.125,-0.125,0.992,960.8088,545.9072)" fill="#333" stroke="#fff" stroke-width="2" paint-order="stroke" stroke-miterlimit="2">Estimation</text>
<text dominant-baseline="central" text-anchor="start" style="font-size:13px;font-family:Microsoft YaHei;" xml:space="preserve" x="6" y="-6.5" transform="matrix(0.969,0.249,-0.249,0.969,952.0019,592.0747)" fill="#333" stroke="#fff" stroke-width="2" paint-order="stroke" stroke-miterlimit="2">Motion Properties</text>
<text dominant-baseline="central" text-anchor="start" style="font-size:13px;font-family:Microsoft YaHei;" x="6" y="6.5" transform="matrix(0.969,0.249,-0.249,0.969,952.0019,592.0747)" fill="#333" stroke="#fff" stroke-width="2" paint-order="stroke" stroke-miterlimit="2">Analysis</text>
<text dominant-baseline="central" text-anchor="middle" style="font-size:20px;font-family:Microsoft YaHei;" transform="matrix(0.588,-0.809,0.809,0.588,811.5347,660.3177)" fill="#333" stroke="#fff" stroke-width="2" paint-order="stroke" stroke-miterlimit="2">Order</text>
<text dominant-baseline="central" text-anchor="start" style="font-size:13px;font-family:Microsoft YaHei;" xml:space="preserve" x="6" y="-6.5" transform="matrix(0.914,0.406,-0.406,0.914,931.5627,650.8671)" fill="#333" stroke="#fff" stroke-width="2" paint-order="stroke" stroke-miterlimit="2">Object Appearance</text>
<text dominant-baseline="central" text-anchor="start" style="font-size:13px;font-family:Microsoft YaHei;" x="6" y="6.5" transform="matrix(0.914,0.406,-0.406,0.914,931.5627,650.8671)" fill="#333" stroke="#fff" stroke-width="2" paint-order="stroke" stroke-miterlimit="2">Ordering</text>
<text dominant-baseline="central" text-anchor="start" style="font-size:13px;font-family:Microsoft YaHei;" xml:space="preserve" x="6" y="-6.5" transform="matrix(0.811,0.585,-0.585,0.811,892.9723,718.0322)" fill="#333" stroke="#fff" stroke-width="2" paint-order="stroke" stroke-miterlimit="2">Event Sequence</text>
<text dominant-baseline="central" text-anchor="start" style="font-size:13px;font-family:Microsoft YaHei;" x="6" y="6.5" transform="matrix(0.811,0.585,-0.585,0.811,892.9723,718.0322)" fill="#333" stroke="#fff" stroke-width="2" paint-order="stroke" stroke-miterlimit="2">Ordering</text>
<text dominant-baseline="central" text-anchor="start" style="font-size:13px;font-family:Microsoft YaHei;" xml:space="preserve" x="6" y="-6.5" transform="matrix(0.671,0.742,-0.742,0.671,840.5108,776.6043)" fill="#333" stroke="#fff" stroke-width="2" paint-order="stroke" stroke-miterlimit="2">Temporal Periodicity</text>
<text dominant-baseline="central" text-anchor="start" style="font-size:13px;font-family:Microsoft YaHei;" x="6" y="6.5" transform="matrix(0.671,0.742,-0.742,0.671,840.5108,776.6043)" fill="#333" stroke="#fff" stroke-width="2" paint-order="stroke" stroke-miterlimit="2">Detection</text>
<text dominant-baseline="central" text-anchor="middle" style="font-size:20px;font-family:Microsoft YaHei;" transform="matrix(0.951,-0.309,0.309,0.951,674.3097,760.0175)" fill="#333" stroke="#fff" stroke-width="2" paint-order="stroke" stroke-miterlimit="2">Change</text>
<text dominant-baseline="central" text-anchor="start" style="font-size:13px;font-family:Microsoft YaHei;" xml:space="preserve" x="6" y="-6.5" transform="matrix(0.501,0.866,-0.866,0.501,776.9693,822.9225)" fill="#333" stroke="#fff" stroke-width="2" paint-order="stroke" stroke-miterlimit="2">Entity Existence</text>
<text dominant-baseline="central" text-anchor="start" style="font-size:13px;font-family:Microsoft YaHei;" xml:space="preserve" x="6" y="6.5" transform="matrix(0.501,0.866,-0.866,0.501,776.9693,822.9225)" fill="#333" stroke="#fff" stroke-width="2" paint-order="stroke" stroke-miterlimit="2">Change Detection</text>
<text dominant-baseline="central" text-anchor="start" style="font-size:13px;font-family:Microsoft YaHei;" xml:space="preserve" x="6" y="-6.5" transform="matrix(0.312,0.95,-0.95,0.312,706.2704,854.5773)" fill="#333" stroke="#fff" stroke-width="2" paint-order="stroke" stroke-miterlimit="2">Entity Attribute</text>
<text dominant-baseline="central" text-anchor="start" style="font-size:13px;font-family:Microsoft YaHei;" xml:space="preserve" x="6" y="6.5" transform="matrix(0.312,0.95,-0.95,0.312,706.2704,854.5773)" fill="#333" stroke="#fff" stroke-width="2" paint-order="stroke" stroke-miterlimit="2">Change Detection</text>
<text dominant-baseline="central" text-anchor="start" style="font-size:13px;font-family:Microsoft YaHei;" xml:space="preserve" x="6" y="-6.5" transform="matrix(0.107,0.994,-0.994,0.107,629.4003,871.127)" fill="#333" stroke="#fff" stroke-width="2" paint-order="stroke" stroke-miterlimit="2">Scene Transformation</text>
<text dominant-baseline="central" text-anchor="start" style="font-size:13px;font-family:Microsoft YaHei;" x="6" y="6.5" transform="matrix(0.107,0.994,-0.994,0.107,629.4003,871.127)" fill="#333" stroke="#fff" stroke-width="2" paint-order="stroke" stroke-miterlimit="2">Detection</text>
<text dominant-baseline="central" text-anchor="middle" style="font-size:20px;font-family:Microsoft YaHei;" y="-10" transform="matrix(0.951,0.309,-0.309,0.951,504.6903,760.0175)" fill="#333" stroke="#fff" stroke-width="2" paint-order="stroke" stroke-miterlimit="2">Temporal</text>
<text dominant-baseline="central" text-anchor="middle" style="font-size:20px;font-family:Microsoft YaHei;" y="10" transform="matrix(0.951,0.309,-0.309,0.951,504.6903,760.0175)" fill="#333" stroke="#fff" stroke-width="2" paint-order="stroke" stroke-miterlimit="2">Reasoning</text>
<text dominant-baseline="central" text-anchor="end" style="font-size:13px;font-family:Microsoft YaHei;" xml:space="preserve" x="-6" transform="matrix(0.156,-0.988,0.988,0.156,530.9528,868.6522)" fill="#333" stroke="#fff" stroke-width="2" paint-order="stroke" stroke-miterlimit="2">Causal Reasoning</text>
<text dominant-baseline="central" text-anchor="end" style="font-size:13px;font-family:Microsoft YaHei;" xml:space="preserve" x="-6" y="-6.5" transform="matrix(0.454,-0.891,0.891,0.454,419.5895,832.4681)" fill="#333" stroke="#fff" stroke-width="2" paint-order="stroke" stroke-miterlimit="2">Future Event</text>
<text dominant-baseline="central" text-anchor="end" style="font-size:13px;font-family:Microsoft YaHei;" x="-6" y="6.5" transform="matrix(0.454,-0.891,0.891,0.454,419.5895,832.4681)" fill="#333" stroke="#fff" stroke-width="2" paint-order="stroke" stroke-miterlimit="2">Prediction</text>
<text dominant-baseline="central" text-anchor="middle" style="font-size:22px;font-family:Microsoft YaHei;font-weight:600;" xml:space="preserve" y="-11" transform="matrix(0.309,-0.951,0.951,0.309,475.6015,461.9921)" fill="#2c3e50">L3: Complex</text>
<text dominant-baseline="central" text-anchor="middle" style="font-size:22px;font-family:Microsoft YaHei;font-weight:600;" y="11" transform="matrix(0.309,-0.951,0.951,0.309,475.6015,461.9921)" fill="#2c3e50">Reasoning</text>
<text dominant-baseline="central" text-anchor="middle" style="font-size:20px;font-family:Microsoft YaHei;" xml:space="preserve" y="-10" transform="matrix(0.588,0.809,-0.809,0.588,367.4653,660.3177)" fill="#333" stroke="#fff" stroke-width="2" paint-order="stroke" stroke-miterlimit="2">Complex Plot</text>
<text dominant-baseline="central" text-anchor="middle" style="font-size:20px;font-family:Microsoft YaHei;" y="10" transform="matrix(0.588,0.809,-0.809,0.588,367.4653,660.3177)" fill="#333" stroke="#fff" stroke-width="2" paint-order="stroke" stroke-miterlimit="2">Comprehension</text>
<text dominant-baseline="central" text-anchor="end" style="font-size:13px;font-family:Microsoft YaHei;" xml:space="preserve" x="-6" y="-6.5" transform="matrix(0.649,-0.76,0.76,0.649,346.4376,783.5895)" fill="#333" stroke="#fff" stroke-width="2" paint-order="stroke" stroke-miterlimit="2">Narrative Turning</text>
<text dominant-baseline="central" text-anchor="end" style="font-size:13px;font-family:Microsoft YaHei;" xml:space="preserve" x="-6" y="6.5" transform="matrix(0.649,-0.76,0.76,0.649,346.4376,783.5895)" fill="#333" stroke="#fff" stroke-width="2" paint-order="stroke" stroke-miterlimit="2">Point Detection</text>
<text dominant-baseline="central" text-anchor="end" style="font-size:13px;font-family:Microsoft YaHei;" xml:space="preserve" x="-6" y="-6.5" transform="matrix(0.76,-0.649,0.649,0.76,304.9105,742.0624)" fill="#333" stroke="#fff" stroke-width="2" paint-order="stroke" stroke-miterlimit="2">Narrative Cloze</text>
<text dominant-baseline="central" text-anchor="end" style="font-size:13px;font-family:Microsoft YaHei;" x="-6" y="6.5" transform="matrix(0.76,-0.649,0.649,0.76,304.9105,742.0624)" fill="#333" stroke="#fff" stroke-width="2" paint-order="stroke" stroke-miterlimit="2">Inference</text>
<text dominant-baseline="central" text-anchor="end" style="font-size:13px;font-family:Microsoft YaHei;" xml:space="preserve" x="-6" y="-6.5" transform="matrix(0.853,-0.522,0.522,0.853,270.3909,694.5503)" fill="#333" stroke="#fff" stroke-width="2" paint-order="stroke" stroke-miterlimit="2">Symbolic / Metaphorical</text>
<text dominant-baseline="central" text-anchor="end" style="font-size:13px;font-family:Microsoft YaHei;" x="-6" y="6.5" transform="matrix(0.853,-0.522,0.522,0.853,270.3909,694.5503)" fill="#333" stroke="#fff" stroke-width="2" paint-order="stroke" stroke-miterlimit="2">Interpretation</text>
<text dominant-baseline="central" text-anchor="end" style="font-size:13px;font-family:Microsoft YaHei;" xml:space="preserve" x="-6" y="-6.5" transform="matrix(0.924,-0.383,0.383,0.924,243.7288,642.2231)" fill="#333" stroke="#fff" stroke-width="2" paint-order="stroke" stroke-miterlimit="2">High-Order Narrative</text>
<text dominant-baseline="central" text-anchor="end" style="font-size:13px;font-family:Microsoft YaHei;" x="-6" y="6.5" transform="matrix(0.924,-0.383,0.383,0.924,243.7288,642.2231)" fill="#333" stroke="#fff" stroke-width="2" paint-order="stroke" stroke-miterlimit="2">Deconstruction</text>
<text dominant-baseline="central" text-anchor="middle" style="font-size:20px;font-family:Microsoft YaHei;" y="-10" transform="matrix(0,1,-1,0,315.05,499)" fill="#333" stroke="#fff" stroke-width="2" paint-order="stroke" stroke-miterlimit="2">Knowledge</text>
<text dominant-baseline="central" text-anchor="middle" style="font-size:20px;font-family:Microsoft YaHei;" y="10" transform="matrix(0,1,-1,0,315.05,499)" fill="#333" stroke="#fff" stroke-width="2" paint-order="stroke" stroke-miterlimit="2">Acquisition</text>
<text dominant-baseline="central" text-anchor="end" style="font-size:13px;font-family:Microsoft YaHei;" xml:space="preserve" x="-6" y="-6.5" transform="matrix(0.988,-0.156,0.156,0.988,219.8478,557.5472)" fill="#333" stroke="#fff" stroke-width="2" paint-order="stroke" stroke-miterlimit="2">Professional Knowledge</text>
<text dominant-baseline="central" text-anchor="end" style="font-size:13px;font-family:Microsoft YaHei;" x="-6" y="6.5" transform="matrix(0.988,-0.156,0.156,0.988,219.8478,557.5472)" fill="#333" stroke="#fff" stroke-width="2" paint-order="stroke" stroke-miterlimit="2">Acquisition</text>
<text dominant-baseline="central" text-anchor="end" style="font-size:13px;font-family:Microsoft YaHei;" xml:space="preserve" x="-6" y="-6.5" transform="matrix(0.988,0.156,-0.156,0.988,219.8478,440.4528)" fill="#333" stroke="#fff" stroke-width="2" paint-order="stroke" stroke-miterlimit="2">General Skills</text>
<text dominant-baseline="central" text-anchor="end" style="font-size:13px;font-family:Microsoft YaHei;" x="-6" y="6.5" transform="matrix(0.988,0.156,-0.156,0.988,219.8478,440.4528)" fill="#333" stroke="#fff" stroke-width="2" paint-order="stroke" stroke-miterlimit="2">Acquisition</text>
<text dominant-baseline="central" text-anchor="middle" style="font-size:20px;font-family:Microsoft YaHei;" xml:space="preserve" y="-10" transform="matrix(0.588,-0.809,0.809,0.588,367.4653,337.6823)" fill="#333" stroke="#fff" stroke-width="2" paint-order="stroke" stroke-miterlimit="2">Social Behavior</text>
<text dominant-baseline="central" text-anchor="middle" style="font-size:20px;font-family:Microsoft YaHei;" y="10" transform="matrix(0.588,-0.809,0.809,0.588,367.4653,337.6823)" fill="#333" stroke="#fff" stroke-width="2" paint-order="stroke" stroke-miterlimit="2">Analysis</text>
<text dominant-baseline="central" text-anchor="end" style="font-size:13px;font-family:Microsoft YaHei;" xml:space="preserve" x="-6" y="-6.5" transform="matrix(0.914,0.406,-0.406,0.914,247.4373,347.1329)" fill="#333" stroke="#fff" stroke-width="2" paint-order="stroke" stroke-miterlimit="2">Individual Social</text>
<text dominant-baseline="central" text-anchor="end" style="font-size:13px;font-family:Microsoft YaHei;" x="-6" y="6.5" transform="matrix(0.914,0.406,-0.406,0.914,247.4373,347.1329)" fill="#333" stroke="#fff" stroke-width="2" paint-order="stroke" stroke-miterlimit="2">Cognition</text>
<text dominant-baseline="central" text-anchor="end" style="font-size:13px;font-family:Microsoft YaHei;" xml:space="preserve" x="-6" y="-6.5" transform="matrix(0.811,0.585,-0.585,0.811,286.0277,279.9678)" fill="#333" stroke="#fff" stroke-width="2" paint-order="stroke" stroke-miterlimit="2">Dyadic Interaction</text>
<text dominant-baseline="central" text-anchor="end" style="font-size:13px;font-family:Microsoft YaHei;" x="-6" y="6.5" transform="matrix(0.811,0.585,-0.585,0.811,286.0277,279.9678)" fill="#333" stroke="#fff" stroke-width="2" paint-order="stroke" stroke-miterlimit="2">Dynamics</text>
<text dominant-baseline="central" text-anchor="end" style="font-size:13px;font-family:Microsoft YaHei;" xml:space="preserve" x="-6" y="-6.5" transform="matrix(0.671,0.742,-0.742,0.671,338.4892,221.3957)" fill="#333" stroke="#fff" stroke-width="2" paint-order="stroke" stroke-miterlimit="2">Collective Dynamics</text>
<text dominant-baseline="central" text-anchor="end" style="font-size:13px;font-family:Microsoft YaHei;" x="-6" y="6.5" transform="matrix(0.671,0.742,-0.742,0.671,338.4892,221.3957)" fill="#333" stroke="#fff" stroke-width="2" paint-order="stroke" stroke-miterlimit="2">Analysis</text>
<text dominant-baseline="central" text-anchor="middle" style="font-size:20px;font-family:Microsoft YaHei;" xml:space="preserve" y="-10" transform="matrix(0.951,-0.309,0.309,0.951,504.6903,237.9825)" fill="#333" stroke="#fff" stroke-width="2" paint-order="stroke" stroke-miterlimit="2">Physical World</text>
<text dominant-baseline="central" text-anchor="middle" style="font-size:20px;font-family:Microsoft YaHei;" y="10" transform="matrix(0.951,-0.309,0.309,0.951,504.6903,237.9825)" fill="#333" stroke="#fff" stroke-width="2" paint-order="stroke" stroke-miterlimit="2">Reasoning</text>
<text dominant-baseline="central" text-anchor="end" style="font-size:13px;font-family:Microsoft YaHei;" xml:space="preserve" x="-6" y="-6.5" transform="matrix(0.522,0.853,-0.853,0.522,393.9497,179.8909)" fill="#333" stroke="#fff" stroke-width="2" paint-order="stroke" stroke-miterlimit="2">Entity Persistence</text>
<text dominant-baseline="central" text-anchor="end" style="font-size:13px;font-family:Microsoft YaHei;" x="-6" y="6.5" transform="matrix(0.522,0.853,-0.853,0.522,393.9497,179.8909)" fill="#333" stroke="#fff" stroke-width="2" paint-order="stroke" stroke-miterlimit="2">Tracking</text>
<text dominant-baseline="central" text-anchor="end" style="font-size:13px;font-family:Microsoft YaHei;" xml:space="preserve" x="-6" transform="matrix(0.383,0.924,-0.924,0.383,446.2769,153.2288)" fill="#333" stroke="#fff" stroke-width="2" paint-order="stroke" stroke-miterlimit="2">Spatial Understanding</text>
<text dominant-baseline="central" text-anchor="end" style="font-size:13px;font-family:Microsoft YaHei;" x="-6" y="-6.5" transform="matrix(0.233,0.972,-0.972,0.233,502.1307,135.0808)" fill="#333" stroke="#fff" stroke-width="2" paint-order="stroke" stroke-miterlimit="2">Counterfactual</text>
<text dominant-baseline="central" text-anchor="end" style="font-size:13px;font-family:Microsoft YaHei;" x="-6" y="6.5" transform="matrix(0.233,0.972,-0.972,0.233,502.1307,135.0808)" fill="#333" stroke="#fff" stroke-width="2" paint-order="stroke" stroke-miterlimit="2">Reasoning</text>
<text dominant-baseline="central" text-anchor="end" style="font-size:13px;font-family:Microsoft YaHei;" x="-6" y="-6.5" transform="matrix(0.078,0.997,-0.997,0.078,560.1359,125.8937)" fill="#333" stroke="#fff" stroke-width="2" paint-order="stroke" stroke-miterlimit="2">Counterintuitive</text>
<text dominant-baseline="central" text-anchor="end" style="font-size:13px;font-family:Microsoft YaHei;" x="-6" y="6.5" transform="matrix(0.078,0.997,-0.997,0.078,560.1359,125.8937)" fill="#333" stroke="#fff" stroke-width="2" paint-order="stroke" stroke-miterlimit="2">Comprehension</text>
<defs >
<filter id="zr0-s0" x="-100%" y="-100%" width="300%" height="300%">
<feDropShadow dx="0" dy="0" stdDeviation="3 3" flood-color="rgb(0,0,0)" flood-opacity="0.08"></feDropShadow>
</filter>
</defs>
<style ><![CDATA[
.zr0-cls-32:hover {
cursor:pointer;
fill:rgba(135,179,215,1);
}
.zr0-cls-33:hover {
cursor:pointer;
fill:rgba(170,215,246,1);
}
.zr0-cls-34:hover {
cursor:pointer;
fill:rgba(196,233,255,1);
}
.zr0-cls-35:hover {
cursor:pointer;
fill:rgba(225,250,255,1);
}
.zr0-cls-36:hover {
cursor:pointer;
fill:rgba(246,255,255,1);
}
.zr0-cls-37:hover {
cursor:pointer;
fill:rgba(255,255,255,1);
}
.zr0-cls-38:hover {
cursor:pointer;
fill:rgba(184,224,255,1);
}
.zr0-cls-39:hover {
cursor:pointer;
fill:rgba(216,245,255,1);
}
.zr0-cls-40:hover {
cursor:pointer;
fill:rgba(240,255,255,1);
}
.zr0-cls-41:hover {
cursor:pointer;
fill:rgba(255,202,179,1);
}
.zr0-cls-42:hover {
cursor:pointer;
fill:rgba(255,221,202,1);
}
.zr0-cls-43:hover {
cursor:pointer;
fill:rgba(255,238,225,1);
}
.zr0-cls-44:hover {
cursor:pointer;
fill:rgba(255,251,242,1);
}
.zr0-cls-45:hover {
cursor:pointer;
fill:rgba(255,255,251,1);
}
.zr0-cls-46:hover {
cursor:pointer;
fill:rgba(255,215,193,1);
}
.zr0-cls-47:hover {
cursor:pointer;
fill:rgba(255,243,231,1);
}
.zr0-cls-48:hover {
cursor:pointer;
fill:rgba(251,209,188,1);
}
.zr0-cls-49:hover {
cursor:pointer;
fill:rgba(255,234,220,1);
}
.zr0-cls-50:hover {
cursor:pointer;
fill:rgba(255,253,244,1);
}
.zr0-cls-51:hover {
cursor:pointer;
fill:rgba(248,200,178,1);
}
.zr0-cls-52:hover {
cursor:pointer;
fill:rgba(255,231,216,1);
}
.zr0-cls-53:hover {
cursor:pointer;
fill:rgba(255,255,247,1);
}
.zr0-cls-54:hover {
cursor:pointer;
fill:rgba(184,233,220,1);
}
.zr0-cls-55:hover {
cursor:pointer;
fill:rgba(207,246,235,1);
}
.zr0-cls-56:hover {
cursor:pointer;
fill:rgba(231,255,249,1);
}
.zr0-cls-57:hover {
cursor:pointer;
fill:rgba(249,255,255,1);
}
.zr0-cls-58:hover {
cursor:pointer;
fill:rgba(199,237,233,1);
}
.zr0-cls-59:hover {
cursor:pointer;
fill:rgba(224,255,251,1);
}
.zr0-cls-60:hover {
cursor:pointer;
fill:rgba(213,233,248,1);
}
.zr0-cls-61:hover {
cursor:pointer;
fill:rgba(237,253,255,1);
}
.zr0-cls-62:hover {
cursor:pointer;
fill:rgba(220,233,250,1);
}
.zr0-cls-63:hover {
cursor:pointer;
fill:rgba(242,250,255,1);
}

]]>

</style>
</svg>