<svg width="1179" height="998" xmlns="http://www.w3.org/2000/svg" xmlns:xlink="http://www.w3.org/1999/xlink" version="1.1" baseProfile="full" viewBox="0 0 1179 998">
<rect width="1179" height="998" x="0" y="0" fill="none"></rect>
<path d="M589.5 424.15A74.85 74.85 0 1 1 589.4925 424.15Z" fill="#7ba3c4" stroke="#fff" stroke-width="3" stroke-linejoin="bevel" filter="url(#zr0-s0)" class="zr0-cls-0"></path>
<path d="M589.5 275.8963A25 25 0 0 1 617.284 251.0518A249.5 249.5 0 0 1 811.118 384.3889A25 25 0 0 1 797.8516 419.2199L679.7777 464.4317A25 25 0 0 1 650.4728 455.5853A74.85 74.85 0 0 0 608.2406 426.5341A25 25 0 0 1 589.5 402.3303Z" fill="#9bc4e0" stroke="#fff" stroke-width="5" stroke-linejoin="bevel" class="zr0-cls-1"></path>
<path d="M589.5 41.7462A40 40 0 0 1 632.9858 1.8984A499 499 0 0 1 710.6261 14.9241A40 40 0 0 1 738.7265 66.782L683.0733 227.9755A40 40 0 0 1 637.5586 254.1723A249.5 249.5 0 0 0 623.9732 251.893A40 40 0 0 1 589.5 212.2767Z" fill="rgb(179,212,237)" stroke="#fff" stroke-width="5" stroke-linejoin="bevel" class="zr0-cls-2"></path>
<path d="M738.7265 66.782A40 40 0 0 1 792.8359 43.3077A499 499 0 0 1 826.3299 59.7818A40 40 0 0 1 840.765 116.9701L744.856 262.7927A35.4291 35.4291 0 0 1 681.7661 231.7616Z" fill="#c5dff2" stroke="#fff" stroke-width="5" stroke-linejoin="bevel" class="zr0-cls-3"></path>
<path d="M841.8127 115.3772A38.2493 38.2493 0 1 1 901.8083 162.4117L773.9276 300.2343A22.5874 22.5874 0 0 1 738.4984 272.459Z" fill="#dbeaf7" stroke="#fff" stroke-width="5" stroke-linejoin="bevel" class="zr0-cls-4"></path>
<path d="M901.8083 162.4117A38.2493 38.2493 0 1 1 953.1948 218.7247L804.2729 333.4888A22.5874 22.5874 0 0 1 773.9276 300.2343Z" fill="#e8f2fa" stroke="#fff" stroke-width="5" stroke-linejoin="bevel" class="zr0-cls-5"></path>
<path d="M968.6585 206.8078A19.9034 19.9034 0 1 1 991.6062 239.2923L807.982 357.8893A10.8144 10.8144 0 0 1 795.5136 340.2391Z" fill="#f2f7fc" stroke="#fff" stroke-width="5" stroke-linejoin="bevel" class="zr0-cls-5"></path>
<path d="M991.6062 239.2923A19.9034 19.9034 0 1 1 1011.7779 273.5697L818.9422 376.5138A10.8144 10.8144 0 0 1 807.982 357.8893Z" fill="#cde4f5" stroke="#fff" stroke-width="5" stroke-linejoin="bevel" class="zr0-cls-6"></path>
<path d="M1003.0827 278.2116A29.2613 29.2613 0 1 1 1027.3266 331.3515L837.4986 404.0387A16.5745 16.5745 0 0 1 823.7661 373.9386Z" fill="#e0eef9" stroke="#fff" stroke-width="5" stroke-linejoin="bevel" class="zr0-cls-7"></path>
<path d="M797.8516 419.2199A25 25 0 0 1 830.9887 436.2826A249.5 249.5 0 0 1 613.1589 747.3757A25 25 0 0 1 585.7917 722.0729L587.8932 595.6563A25 25 0 0 1 607.0335 571.7674A74.85 74.85 0 0 0 663.8758 490.5882A25 25 0 0 1 679.7777 464.4317Z" fill="#e8b8a3" stroke="#fff" stroke-width="5" stroke-linejoin="bevel" class="zr0-cls-8"></path>
<path d="M1016.5192 335.4898A40 40 0 0 1 1069.2824 361.851A499 499 0 0 1 1088.1512 480.3467A40 40 0 0 1 1046.1854 521.7922L875.8669 513.292A40 40 0 0 1 838.0181 476.8869A249.5 249.5 0 0 0 832.5951 442.8303A40 40 0 0 1 857.2646 396.4701Z" fill="#efc9b8" stroke="#fff" stroke-width="5" stroke-linejoin="bevel" class="zr0-cls-9"></path>
<path d="M1046.1854 521.7922A40 40 0 0 1 1083.8161 567.2103A499 499 0 0 1 1066.9365 644.1048A40 40 0 0 1 1013.7424 669.5853L855.5234 605.9664A40 40 0 0 1 831.6279 559.2025A249.5 249.5 0 0 0 834.5814 545.7476A40 40 0 0 1 875.8669 513.292Z" fill="#f3d9cd" stroke="#fff" stroke-width="5" stroke-linejoin="bevel" class="zr0-cls-10"></path>
<path d="M1013.7424 669.5853A40 40 0 0 1 1034.4904 724.7975A499 499 0 0 1 1016.3672 757.4287A40 40 0 0 1 958.5305 768.9953L817.6699 665.9369A35.4291 35.4291 0 0 1 851.8071 604.4721Z" fill="#f7e5dc" stroke="#fff" stroke-width="5" stroke-linejoin="bevel" class="zr0-cls-11"></path>
<path d="M958.5305 768.9953A40 40 0 0 1 965.0129 827.6199A499 499 0 0 1 939.3981 854.77A40 40 0 0 1 880.4958 851.7073L769.4213 717.0773A35.4291 35.4291 0 0 1 817.6699 665.9369Z" fill="#f9ece5" stroke="#fff" stroke-width="5" stroke-linejoin="bevel" class="zr0-cls-12"></path>
<path d="M880.4958 851.7073A40 40 0 0 1 872.3116 910.1187A499 499 0 0 1 840.7894 930.1086A40 40 0 0 1 784.4642 912.606L710.0455 754.7307A35.4291 35.4291 0 0 1 769.4213 717.0773Z" fill="#fbf2ed" stroke="#fff" stroke-width="5" stroke-linejoin="bevel" class="zr0-cls-5"></path>
<path d="M784.4642 912.606A40 40 0 0 1 762.1197 967.1917A499 499 0 0 1 746.4532 972.6736A40 40 0 0 1 694.95 943.9284L653.3498 768.4034A28.8672 28.8672 0 0 1 707.5505 749.4377Z" fill="#fdf7f4" stroke="#fff" stroke-width="5" stroke-linejoin="bevel" class="zr0-cls-5"></path>
<path d="M695.3896 945.7836A38.2493 38.2493 0 1 1 620.0065 957.1457L607.515 769.5491A22.5874 22.5874 0 0 1 652.0311 762.8394Z" fill="#f4ddd2" stroke="#fff" stroke-width="5" stroke-linejoin="bevel" class="zr0-cls-13"></path>
<path d="M621.3036 976.6254A19.9034 19.9034 0 1 1 581.5436 977.6169L585.1769 759.0537A10.8144 10.8144 0 0 1 606.7803 758.515Z" fill="#f9ebe5" stroke="#fff" stroke-width="5" stroke-linejoin="bevel" class="zr0-cls-12"></path>
<path d="M585.7917 722.0729A25 25 0 0 1 557.5986 746.4521A249.5 249.5 0 0 1 340.0213 495.7375A25 25 0 0 1 368.1278 471.2585L493.5806 486.9797A25 25 0 0 1 515.2662 508.5845A74.85 74.85 0 0 0 569.5575 571.1444A25 25 0 0 1 587.8932 595.6563Z" fill="#c5a8d4" stroke="#fff" stroke-width="5" stroke-linejoin="bevel" class="zr0-cls-14"></path>
<path d="M581.8998 956.1906A40 40 0 0 1 537.7576 995.3101A499 499 0 0 1 440.4323 975.214A40 40 0 0 1 415.3947 921.8101L480.3264 764.1252A40 40 0 0 1 527.2873 740.6192A249.5 249.5 0 0 0 550.9243 745.4998A40 40 0 0 1 584.7343 785.6837Z" fill="#d4bce0" stroke="#fff" stroke-width="5" stroke-linejoin="bevel" class="zr0-cls-15"></path>
<path d="M415.3947 921.8101A40 40 0 0 1 360.0119 942.0984A499 499 0 0 1 293.1798 900.4914A40 40 0 0 1 286.9417 841.8403L399.7793 713.9797A40 40 0 0 1 451.8402 707.0866A249.5 249.5 0 0 0 463.5344 714.3669A40 40 0 0 1 480.3264 764.1252Z" fill="#dfcee8" stroke="#fff" stroke-width="5" stroke-linejoin="bevel" class="zr0-cls-16"></path>
<path d="M286.9417 841.8403A40 40 0 0 1 227.9701 842.9435A499 499 0 0 1 190.4793 798.6389A40 40 0 0 1 201.3246 740.6627L346.0926 650.5358A40 40 0 0 1 397.9435 658.8635A249.5 249.5 0 0 0 400.1454 661.4657A40 40 0 0 1 399.7793 713.9797Z" fill="#e7dcef" stroke="#fff" stroke-width="5" stroke-linejoin="bevel" class="zr0-cls-17"></path>
<path d="M201.3246 740.6627A40 40 0 0 1 144.514 724.8063A499 499 0 0 1 121.305 671.6105A40 40 0 0 1 148.3224 619.1803L312.8573 574.3597A40 40 0 0 1 360.1415 597.2085A249.5 249.5 0 0 0 361.5046 600.3329A40 40 0 0 1 346.0926 650.5358Z" fill="#efe8f4" stroke="#fff" stroke-width="5" stroke-linejoin="bevel" class="zr0-cls-5"></path>
<path d="M146.4829 619.6814A38.2493 38.2493 0 1 1 132.6214 544.7176L319.6992 525.9976A22.5874 22.5874 0 0 1 327.8848 570.2661Z" fill="#f2edf7" stroke="#fff" stroke-width="5" stroke-linejoin="bevel" class="zr0-cls-5"></path>
<path d="M123.0033 545.68A29.2613 29.2613 0 1 1 120.8193 487.3118L324.0247 492.3795A16.5745 16.5745 0 0 1 325.2618 525.441Z" fill="#f5f2f9" stroke="#fff" stroke-width="5" stroke-linejoin="bevel" class="zr0-cls-5"></path>
<path d="M114.9305 487.165A23.6921 23.6921 0 1 1 118.4672 439.9719L329.2728 466.3893A13.089 13.089 0 0 1 327.319 492.4616Z" fill="rgb(248,246,251)" stroke="#fff" stroke-width="5" stroke-linejoin="bevel" class="zr0-cls-5"></path>
<path d="M368.1278 471.2585A25 25 0 0 1 346.9309 440.6009A249.5 249.5 0 0 1 561.716 251.0518A25 25 0 0 1 589.5 275.8963L589.5 402.3303A25 25 0 0 1 570.7594 426.5341A74.85 74.85 0 0 0 519.9267 471.3941A25 25 0 0 1 493.5806 486.9797Z" fill="#a8d4c8" stroke="#fff" stroke-width="5" stroke-linejoin="bevel" class="zr0-cls-18"></path>
<path d="M135.7949 442.1434A40 40 0 0 1 101.6635 394.0402A499 499 0 0 1 117.1503 338.1063A40 40 0 0 1 171.1619 314.4079L327.179 383.2506A40 40 0 0 1 349.5069 430.7829A249.5 249.5 0 0 0 348.5973 434.0681A40 40 0 0 1 305.0019 463.3478Z" fill="rgb(189,224,214)" stroke="#fff" stroke-width="5" stroke-linejoin="bevel" class="zr0-cls-19"></path>
<path d="M169.4177 313.6382A38.2493 38.2493 0 1 1 205.8772 246.6873L362.959 350.0016A22.5874 22.5874 0 0 1 341.4285 389.5382Z" fill="#d2ebe3" stroke="#fff" stroke-width="5" stroke-linejoin="bevel" class="zr0-cls-20"></path>
<path d="M205.8772 246.6873A38.2493 38.2493 0 1 1 252.9117 186.6917L390.7343 314.5724A22.5874 22.5874 0 0 1 362.959 350.0016Z" fill="#e3f2ec" stroke="#fff" stroke-width="5" stroke-linejoin="bevel" class="zr0-cls-21"></path>
<path d="M252.9117 186.6917A38.2493 38.2493 0 1 1 309.2247 135.3052L423.9888 284.2271A22.5874 22.5874 0 0 1 390.7343 314.5724Z" fill="#edf6f2" stroke="#fff" stroke-width="5" stroke-linejoin="bevel" class="zr0-cls-5"></path>
<path d="M309.2247 135.3052A38.2493 38.2493 0 1 1 373.2637 93.9444L461.8058 259.8022A22.5874 22.5874 0 0 1 423.9888 284.2271Z" fill="#f4faf7" stroke="#fff" stroke-width="5" stroke-linejoin="bevel" class="zr0-cls-5"></path>
<path d="M368.7116 85.4173A29.2613 29.2613 0 1 1 421.8515 61.1734L494.5387 251.0014A16.5745 16.5745 0 0 1 464.4386 264.7339Z" fill="rgb(181,216,212)" stroke="#fff" stroke-width="5" stroke-linejoin="bevel" class="zr0-cls-22"></path>
<path d="M419.745 55.6722A23.6921 23.6921 0 1 1 464.7298 40.9731L520.5693 245.9581A13.089 13.089 0 0 1 495.717 254.0788Z" fill="rgb(204,232,229)" stroke="#fff" stroke-width="5" stroke-linejoin="bevel" class="zr0-cls-23"></path>
<path d="M464.7298 40.9731A23.6921 23.6921 0 1 1 510.9545 30.826L546.1067 240.3522A13.089 13.089 0 0 1 520.5693 245.9581Z" fill="rgb(227,242,241)" stroke="#fff" stroke-width="5" stroke-linejoin="bevel" class="zr0-cls-21"></path>
<path d="M510.2983 26.9147A19.9034 19.9034 0 1 1 549.762 21.9692L567.9086 239.8081A10.8144 10.8144 0 0 1 546.4662 242.4952Z" fill="rgb(216,230,239)" stroke="#fff" stroke-width="5" stroke-linejoin="bevel" class="zr0-cls-24"></path>
<path d="M549.762 21.9692A19.9034 19.9034 0 1 1 589.5 20.317L589.5 238.9104A10.8144 10.8144 0 0 1 567.9086 239.8081Z" fill="rgb(232,240,246)" stroke="#fff" stroke-width="5" stroke-linejoin="bevel" class="zr0-cls-5"></path>
<text dominant-baseline="central" text-anchor="middle" style="font-size:28px;font-family:"Segoe UI", "PingFang SC", "Microsoft YaHei", sans-serif;font-weight:500;" xml:space="preserve" y="-14" transform="matrix(0.824,0.567,-0.567,0.824,681.4125,365.3855)" fill="#333" stroke="#fff" paint-order="stroke" stroke-miterlimit="2">Sports &amp;</text>
<text dominant-baseline="central" text-anchor="middle" style="font-size:28px;font-family:"Segoe UI", "PingFang SC", "Microsoft YaHei", sans-serif;font-weight:500;" y="14" transform="matrix(0.824,0.567,-0.567,0.824,681.4125,365.3855)" fill="#333" stroke="#fff" paint-order="stroke" stroke-miterlimit="2">Competition</text>
<text dominant-baseline="central" text-anchor="middle" style="font-size:18px;font-family:Microsoft YaHei;" xml:space="preserve" transform="matrix(0.165,-0.986,0.986,0.165,651.4224,129.9083)" fill="#333" stroke="#fff" stroke-width="2" paint-order="stroke" stroke-miterlimit="2">Gym &amp; Fitness</text>
<text dominant-baseline="central" text-anchor="middle" style="font-size:18px;font-family:Microsoft YaHei;" xml:space="preserve" transform="matrix(0.441,-0.897,0.897,0.441,754.6777,163.1736)" fill="#333" stroke="#fff" stroke-width="2" paint-order="stroke" stroke-miterlimit="2">Outdoor &amp; Extreme</text>
<text dominant-baseline="central" text-anchor="middle" style="font-size:18px;font-family:Microsoft YaHei;" transform="matrix(0.617,-0.787,0.787,0.617,820.4012,204.4704)" fill="#333" stroke="#fff" stroke-width="2" paint-order="stroke" stroke-miterlimit="2">Basketball</text>
<text dominant-baseline="central" text-anchor="middle" style="font-size:18px;font-family:Microsoft YaHei;" transform="matrix(0.739,-0.674,0.674,0.739,865.9508,246.7342)" fill="#333" stroke="#fff" stroke-width="2" paint-order="stroke" stroke-miterlimit="2">Soccer</text>
<text dominant-baseline="central" text-anchor="middle" style="font-size:18px;font-family:Microsoft YaHei;" xml:space="preserve" transform="matrix(0.817,-0.577,0.577,0.817,895.173,283.0669)" fill="#333" stroke="#fff" stroke-width="2" paint-order="stroke" stroke-miterlimit="2">Combat Sports</text>
<text dominant-baseline="central" text-anchor="middle" style="font-size:18px;font-family:Microsoft YaHei;" xml:space="preserve" transform="matrix(0.862,-0.507,0.507,0.862,912.0436,309.1878)" fill="#333" stroke="#fff" stroke-width="2" paint-order="stroke" stroke-miterlimit="2">Racing &amp; Speed</text>
<text dominant-baseline="central" text-anchor="middle" style="font-size:18px;font-family:Microsoft YaHei;" xml:space="preserve" transform="matrix(0.91,-0.415,0.415,0.91,929.9885,343.6595)" fill="#333" stroke="#fff" stroke-width="2" paint-order="stroke" stroke-miterlimit="2">Other Sports</text>
<text dominant-baseline="central" text-anchor="middle" style="font-size:28px;font-family:"Segoe UI", "PingFang SC", "Microsoft YaHei", sans-serif;font-weight:500;" xml:space="preserve" y="-14" transform="matrix(0.574,-0.819,0.819,0.574,722.346,592.0198)" fill="#333" stroke="#fff" paint-order="stroke" stroke-miterlimit="2">Lifestyle &amp;</text>
<text dominant-baseline="central" text-anchor="middle" style="font-size:28px;font-family:"Segoe UI", "PingFang SC", "Microsoft YaHei", sans-serif;font-weight:500;" y="14" transform="matrix(0.574,-0.819,0.819,0.574,722.346,592.0198)" fill="#333" stroke="#fff" paint-order="stroke" stroke-miterlimit="2">Entertainment</text>
<text dominant-baseline="central" text-anchor="middle" style="font-size:18px;font-family:Microsoft YaHei;" xml:space="preserve" transform="matrix(0.988,-0.157,0.157,0.988,959.0936,440.1472)" fill="#333" stroke="#fff" stroke-width="2" paint-order="stroke" stroke-miterlimit="2">Variety &amp; Comedy</text>
<text dominant-baseline="central" text-anchor="middle" style="font-size:18px;font-family:Microsoft YaHei;" xml:space="preserve" transform="matrix(0.977,0.214,-0.214,0.977,955.0463,579.2432)" fill="#333" stroke="#fff" stroke-width="2" paint-order="stroke" stroke-miterlimit="2">Cooking &amp; Baking</text>
<text dominant-baseline="central" text-anchor="middle" style="font-size:18px;font-family:Microsoft YaHei;" xml:space="preserve" transform="matrix(0.874,0.486,-0.486,0.874,916.6755,680.712)" fill="#333" stroke="#fff" stroke-width="2" paint-order="stroke" stroke-miterlimit="2">Digital &amp; Auto</text>
<text dominant-baseline="central" text-anchor="middle" style="font-size:18px;font-family:Microsoft YaHei;" xml:space="preserve" transform="matrix(0.727,0.686,-0.686,0.727,861.7196,755.8259)" fill="#333" stroke="#fff" stroke-width="2" paint-order="stroke" stroke-miterlimit="2">Travel &amp; Exploration</text>
<text dominant-baseline="central" text-anchor="middle" style="font-size:18px;font-family:Microsoft YaHei;" xml:space="preserve" transform="matrix(0.536,0.845,-0.845,0.536,789.9281,815.0564)" fill="#333" stroke="#fff" stroke-width="2" paint-order="stroke" stroke-miterlimit="2">Home &amp; Living</text>
<text dominant-baseline="central" text-anchor="middle" style="font-size:18px;font-family:Microsoft YaHei;" xml:space="preserve" transform="matrix(0.33,0.944,-0.944,0.33,713.1069,852.2483)" fill="#333" stroke="#fff" stroke-width="2" paint-order="stroke" stroke-miterlimit="2">Gaming &amp; Play</text>
<text dominant-baseline="central" text-anchor="middle" style="font-size:18px;font-family:Microsoft YaHei;" xml:space="preserve" transform="matrix(0.149,0.989,-0.989,0.149,645.2791,869.0699)" fill="#333" stroke="#fff" stroke-width="2" paint-order="stroke" stroke-miterlimit="2">Pets &amp; Animals</text>
<text dominant-baseline="central" text-anchor="middle" style="font-size:18px;font-family:Microsoft YaHei;" xml:space="preserve" transform="matrix(0.025,1,-1,0.025,598.8303,873.1337)" fill="#333" stroke="#fff" stroke-width="2" paint-order="stroke" stroke-miterlimit="2">Vlogs &amp; Review</text>
<text dominant-baseline="central" text-anchor="middle" style="font-size:28px;font-family:"Segoe UI", "PingFang SC", "Microsoft YaHei", sans-serif;font-weight:500;" xml:space="preserve" y="-14" transform="matrix(0.655,0.755,-0.755,0.655,467.0166,605.2946)" fill="#333" stroke="#fff" paint-order="stroke" stroke-miterlimit="2">Art &amp;</text>
<text dominant-baseline="central" text-anchor="middle" style="font-size:28px;font-family:"Segoe UI", "PingFang SC", "Microsoft YaHei", sans-serif;font-weight:500;" y="14" transform="matrix(0.655,0.755,-0.755,0.655,467.0166,605.2946)" fill="#333" stroke="#fff" paint-order="stroke" stroke-miterlimit="2">Literature</text>
<text dominant-baseline="central" text-anchor="middle" style="font-size:18px;font-family:Microsoft YaHei;" transform="matrix(0.202,-0.979,0.979,0.202,513.8201,865.5182)" fill="#333" stroke="#fff" stroke-width="2" paint-order="stroke" stroke-miterlimit="2">Film</text>
<text dominant-baseline="central" text-anchor="middle" style="font-size:18px;font-family:Microsoft YaHei;" xml:space="preserve" transform="matrix(0.529,-0.849,0.849,0.529,391.7055,816.7112)" fill="#333" stroke="#fff" stroke-width="2" paint-order="stroke" stroke-miterlimit="2">Performing Arts</text>
<text dominant-baseline="central" text-anchor="middle" style="font-size:18px;font-family:Microsoft YaHei;" xml:space="preserve" transform="matrix(0.763,-0.646,0.646,0.763,303.81,740.7525)" fill="#333" stroke="#fff" stroke-width="2" paint-order="stroke" stroke-miterlimit="2">TV Series</text>
<text dominant-baseline="central" text-anchor="middle" style="font-size:18px;font-family:Microsoft YaHei;" xml:space="preserve" transform="matrix(0.917,-0.4,0.4,0.917,246.4766,648.6596)" fill="#333" stroke="#fff" stroke-width="2" paint-order="stroke" stroke-miterlimit="2">Animation &amp; Comics</text>
<text dominant-baseline="central" text-anchor="middle" style="font-size:18px;font-family:Microsoft YaHei;" xml:space="preserve" transform="matrix(0.983,-0.182,0.182,0.983,221.4885,567.0487)" fill="#333" stroke="#fff" stroke-width="2" paint-order="stroke" stroke-miterlimit="2">Painting &amp; Handicraft</text>
<text dominant-baseline="central" text-anchor="middle" style="font-size:18px;font-family:Microsoft YaHei;" xml:space="preserve" transform="matrix(0.999,-0.037,0.037,0.999,215.5117,512.9937)" fill="#333" stroke="#fff" stroke-width="2" paint-order="stroke" stroke-miterlimit="2">Fashion &amp; Beauty</text>
<text dominant-baseline="central" text-anchor="middle" style="font-size:18px;font-family:Microsoft YaHei;" xml:space="preserve" transform="matrix(0.997,0.075,-0.075,0.997,216.2965,471.0323)" fill="#333" stroke="#fff" stroke-width="2" paint-order="stroke" stroke-miterlimit="2">Architecture &amp; Design</text>
<text dominant-baseline="central" text-anchor="middle" style="font-size:28px;font-family:"Segoe UI", "PingFang SC", "Microsoft YaHei", sans-serif;font-weight:500;" xml:space="preserve" y="-14" transform="matrix(0.75,-0.662,0.662,0.75,482.1911,377.4042)" fill="#333" stroke="#fff" paint-order="stroke" stroke-miterlimit="2">Knowledge &amp;</text>
<text dominant-baseline="central" text-anchor="middle" style="font-size:28px;font-family:"Segoe UI", "PingFang SC", "Microsoft YaHei", sans-serif;font-weight:500;" y="14" transform="matrix(0.75,-0.662,0.662,0.75,482.1911,377.4042)" fill="#333" stroke="#fff" paint-order="stroke" stroke-miterlimit="2">Education</text>
<text dominant-baseline="central" text-anchor="middle" style="font-size:18px;font-family:Microsoft YaHei;" xml:space="preserve" transform="matrix(0.964,0.267,-0.267,0.964,228.8198,399.1359)" fill="#333" stroke="#fff" stroke-width="2" paint-order="stroke" stroke-miterlimit="2">Physics &amp; Math</text>
<text dominant-baseline="central" text-anchor="middle" style="font-size:18px;font-family:Microsoft YaHei;" xml:space="preserve" transform="matrix(0.878,0.478,-0.478,0.878,260.8256,320.0134)" fill="#333" stroke="#fff" stroke-width="2" paint-order="stroke" stroke-miterlimit="2">Nature &amp; Geography</text>
<text dominant-baseline="central" text-anchor="middle" style="font-size:18px;font-family:Microsoft YaHei;" xml:space="preserve" transform="matrix(0.787,0.617,-0.617,0.787,294.9704,268.0988)" fill="#333" stroke="#fff" stroke-width="2" paint-order="stroke" stroke-miterlimit="2">Mechanics &amp; Structures</text>
<text dominant-baseline="central" text-anchor="middle" style="font-size:18px;font-family:Microsoft YaHei;" xml:space="preserve" transform="matrix(0.674,0.739,-0.739,0.674,337.2342,222.5492)" fill="#333" stroke="#fff" stroke-width="2" paint-order="stroke" stroke-miterlimit="2">Politics &amp; Global News</text>
<text dominant-baseline="central" text-anchor="middle" style="font-size:18px;font-family:Microsoft YaHei;" xml:space="preserve" transform="matrix(0.543,0.84,-0.84,0.543,386.4521,184.6203)" fill="#333" stroke="#fff" stroke-width="2" paint-order="stroke" stroke-miterlimit="2">Economics &amp; Law</text>
<text dominant-baseline="central" text-anchor="middle" style="font-size:18px;font-family:Microsoft YaHei;" xml:space="preserve" transform="matrix(0.415,0.91,-0.91,0.415,434.1595,158.5115)" fill="#333" stroke="#fff" stroke-width="2" paint-order="stroke" stroke-miterlimit="2">Computer Science &amp; AI</text>
<text dominant-baseline="central" text-anchor="middle" style="font-size:18px;font-family:Microsoft YaHei;" xml:space="preserve" transform="matrix(0.311,0.951,-0.951,0.311,473.2589,143.2598)" fill="#333" stroke="#fff" stroke-width="2" paint-order="stroke" stroke-miterlimit="2">Humanities &amp; History</text>
<text dominant-baseline="central" text-anchor="middle" style="font-size:18px;font-family:Microsoft YaHei;" xml:space="preserve" transform="matrix(0.214,0.977,-0.977,0.214,509.2568,133.4537)" fill="#333" stroke="#fff" stroke-width="2" paint-order="stroke" stroke-miterlimit="2">Philosophy &amp; Wisdom</text>
<text dominant-baseline="central" text-anchor="middle" style="font-size:18px;font-family:Microsoft YaHei;" xml:space="preserve" transform="matrix(0.124,0.992,-0.992,0.124,542.9644,127.6545)" fill="#333" stroke="#fff" stroke-width="2" paint-order="stroke" stroke-miterlimit="2">Chemistry &amp; Materials</text>
<text dominant-baseline="central" text-anchor="middle" style="font-size:18px;font-family:Microsoft YaHei;" xml:space="preserve" transform="matrix(0.042,0.999,-0.999,0.042,573.9523,125.0731)" fill="#333" stroke="#fff" stroke-width="2" paint-order="stroke" stroke-miterlimit="2">Documentary &amp; Bio</text>
<defs >
<filter id="zr0-s0" x="-100%" y="-100%" width="300%" height="300%">
<feDropShadow dx="0" dy="0" stdDeviation="3 3" flood-color="rgb(0,0,0)" flood-opacity="0.08"></feDropShadow>
</filter>
</defs>
<style ><![CDATA[
.zr0-cls-0:hover {
cursor:pointer;
fill:rgba(135,179,215,1);
}
.zr0-cls-1:hover {
cursor:pointer;
fill:rgba(170,215,246,1);
}
.zr0-cls-2:hover {
cursor:pointer;
fill:rgba(196,233,255,1);
}
.zr0-cls-3:hover {
cursor:pointer;
fill:rgba(216,245,255,1);
}
.zr0-cls-4:hover {
cursor:pointer;
fill:rgba(240,255,255,1);
}
.zr0-cls-5:hover {
cursor:pointer;
fill:rgba(255,255,255,1);
}
.zr0-cls-6:hover {
cursor:pointer;
fill:rgba(225,250,255,1);
}
.zr0-cls-7:hover {
cursor:pointer;
fill:rgba(246,255,255,1);
}
.zr0-cls-8:hover {
cursor:pointer;
fill:rgba(255,202,179,1);
}
.zr0-cls-9:hover {
cursor:pointer;
fill:rgba(255,221,202,1);
}
.zr0-cls-10:hover {
cursor:pointer;
fill:rgba(255,238,225,1);
}
.zr0-cls-11:hover {
cursor:pointer;
fill:rgba(255,251,242,1);
}
.zr0-cls-12:hover {
cursor:pointer;
fill:rgba(255,255,251,1);
}
.zr0-cls-13:hover {
cursor:pointer;
fill:rgba(255,243,231,1);
}
.zr0-cls-14:hover {
cursor:pointer;
fill:rgba(216,184,233,1);
}
.zr0-cls-15:hover {
cursor:pointer;
fill:rgba(233,206,246,1);
}
.zr0-cls-16:hover {
cursor:pointer;
fill:rgba(245,226,255,1);
}
.zr0-cls-17:hover {
cursor:pointer;
fill:rgba(254,242,255,1);
}
.zr0-cls-18:hover {
cursor:pointer;
fill:rgba(184,233,220,1);
}
.zr0-cls-19:hover {
cursor:pointer;
fill:rgba(207,246,235,1);
}
.zr0-cls-20:hover {
cursor:pointer;
fill:rgba(231,255,249,1);
}
.zr0-cls-21:hover {
cursor:pointer;
fill:rgba(249,255,255,1);
}
.zr0-cls-22:hover {
cursor:pointer;
fill:rgba(199,237,233,1);
}
.zr0-cls-23:hover {
cursor:pointer;
fill:rgba(224,255,251,1);
}
.zr0-cls-24:hover {
cursor:pointer;
fill:rgba(237,253,255,1);
}

]]>

</style>
</svg>