<?xml version="1.0" encoding="UTF-8" standalone="no"?>
<svg
   width="1053.5417"
   height="1060.4427"
   version="1.1"
   viewBox="0 0 1053.5417 1060.4427"
   id="svg113"
   sodipodi:docname="teaser.svg"
   inkscape:version="1.3.2 (091e20e, 2023-11-25, custom)"
   xmlns:inkscape="http://www.inkscape.org/namespaces/inkscape"
   xmlns:sodipodi="http://sodipodi.sourceforge.net/DTD/sodipodi-0.dtd"
   xmlns="http://www.w3.org/2000/svg"
   xmlns:svg="http://www.w3.org/2000/svg">
  <sodipodi:namedview
     id="namedview113"
     pagecolor="#ffffff"
     bordercolor="#000000"
     borderopacity="0.25"
     inkscape:showpageshadow="2"
     inkscape:pageopacity="0.0"
     inkscape:pagecheckerboard="0"
     inkscape:deskcolor="#d1d1d1"
     inkscape:zoom="0.43472409"
     inkscape:cx="517.56966"
     inkscape:cy="556.67492"
     inkscape:window-width="1536"
     inkscape:window-height="938"
     inkscape:window-x="-6"
     inkscape:window-y="-6"
     inkscape:window-maximized="1"
     inkscape:current-layer="svg113" />
  <rect
     width="1486"
     height="1185"
     x="-225.43034"
     y="-36.804955"
     fill="none"
     id="rect1" />
  <path
     d="m 517.56966,508.29505 a 47.4,47.4 0 1 1 -0.005,0 z"
     fill="#3a5f7d"
     stroke="#ffffff"
     stroke-width="3"
     stroke-linejoin="bevel"
     filter="url(#zr0-s0)"
     class="zr0-cls-0"
     id="path1" />
  <path
     d="m 517.56966,369.39045 a 20,20 0 0 1 22.1348,-19.8857 207.375,207.375 0 0 1 185.1791,201.1582 20,20 0 0 1 -21.6457,20.417 l -121.5238,-10.0697 a 20,20 0 0 1 -17.8724,-15.5945 47.4,47.4 0 0 0 -32.2067,-34.9858 20,20 0 0 1 -14.0653,-19.0992 z"
     fill="#6b9ac4"
     stroke="#ffffff"
     stroke-width="2"
     stroke-linejoin="bevel"
     class="zr0-cls-1"
     id="path2" />
  <path
     d="m 517.56966,191.11825 a 20,20 0 0 1 21.0955,-19.97 385.125,385.125 0 0 1 247.5372,108.5799 20,20 0 0 1 -0.4048,29.0457 l -101.5911,93.5212 a 20,20 0 0 1 -27.0116,0.0729 207.375,207.375 0 0 0 -121.3844,-53.2441 20,20 0 0 1 -18.2408,-19.9225 z"
     fill="#8fb3d9"
     stroke="#ffffff"
     stroke-width="3"
     stroke-linejoin="bevel"
     class="zr0-cls-2"
     id="path3" />
  <path
     d="m 517.56966,158.89695 a 11.85,11.85 0 0 1 12.2037,-11.8447 408.825,408.825 0 0 1 86.153,11.8257 11.85,11.85 0 0 1 8.5608,14.6949 v 0 a 11.85,11.85 0 0 1 -14.2626,8.309 385.125,385.125 0 0 0 -81.1586,-11.1402 11.85,11.85 0 0 1 -11.4963,-11.8447 z"
     fill="#b3d1ee"
     stroke="#ffffff"
     stroke-linejoin="bevel"
     class="zr0-cls-3"
     id="path4" />
  <path
     d="m 624.48716,173.57285 a 11.85,11.85 0 0 1 14.9439,-8.1183 408.825,408.825 0 0 1 79.7801,34.6022 11.85,11.85 0 0 1 4.2846,16.4582 v 0 a 11.85,11.85 0 0 1 -15.9739,4.1585 385.125,385.125 0 0 0 -75.1552,-32.5963 11.85,11.85 0 0 1 -7.8795,-14.5043 z"
     fill="#c9e0f5"
     stroke="#ffffff"
     stroke-linejoin="bevel"
     class="zr0-cls-4"
     id="path5" />
  <path
     d="m 723.49576,216.51495 a 11.85,11.85 0 0 1 16.5787,-3.7914 408.825,408.825 0 0 1 69.8781,57.2267 11.85,11.85 0 0 1 -0.4491,17.0008 v 0 a 11.85,11.85 0 0 1 -16.5006,-0.4359 385.125,385.125 0 0 0 -65.8272,-53.9092 11.85,11.85 0 0 1 -3.6799,-16.091 z"
     fill="#dbe9f7"
     stroke="#ffffff"
     stroke-linejoin="bevel"
     class="zr0-cls-5"
     id="path6" />
  <path
     d="m 785.79756,308.77385 a 20,20 0 0 1 28.98,1.9952 385.125,385.125 0 0 1 87.7675,255.6582 20,20 0 0 1 -21.6438,19.3743 l -137.6115,-11.4028 a 20,20 0 0 1 -18.3481,-19.8237 207.375,207.375 0 0 0 -43.0385,-125.3667 20,20 0 0 1 2.3033,-26.9133 z"
     fill="#7fa5d6"
     stroke="#ffffff"
     stroke-width="3"
     stroke-linejoin="bevel"
     class="zr0-cls-6"
     id="path7" />
  <path
     d="m 809.50346,286.95105 a 11.85,11.85 0 0 1 16.9799,0.9563 408.825,408.825 0 0 1 49.6493,71.3941 11.85,11.85 0 0 1 -5.0133,16.251 v 0 a 11.85,11.85 0 0 1 -15.7729,-4.8658 385.125,385.125 0 0 0 -46.7712,-67.2553 11.85,11.85 0 0 1 0.9282,-16.4803 z"
     fill="#a3c6eb"
     stroke="#ffffff"
     stroke-linejoin="bevel"
     class="zr0-cls-7"
     id="path8" />
  <path
     d="m 871.11936,375.55245 a 11.85,11.85 0 0 1 16.0941,5.4962 408.825,408.825 0 0 1 28.5759,82.1317 11.85,11.85 0 0 1 -9.2068,14.299 v 0 a 11.85,11.85 0 0 1 -13.8784,-8.9359 385.125,385.125 0 0 0 -26.9193,-77.3703 11.85,11.85 0 0 1 5.3345,-15.6207 z"
     fill="#c0daf2"
     stroke="#ffffff"
     stroke-linejoin="bevel"
     class="zr0-cls-8"
     id="path9" />
  <path
     d="m 906.58256,477.47935 a 11.85,11.85 0 0 1 14.0179,9.6295 408.825,408.825 0 0 1 5.2241,90.1696 11.85,11.85 0 0 1 -12.8121,11.1839 v 0 a 11.85,11.85 0 0 1 -10.8549,-12.4351 385.125,385.125 0 0 0 -4.9212,-84.9424 11.85,11.85 0 0 1 9.3462,-13.6055 z"
     fill="#d5e6f8"
     stroke="#ffffff"
     stroke-linejoin="bevel"
     class="zr0-cls-9"
     id="path10" />
  <path
     d="m 703.23786,571.07995 a 20,20 0 0 1 17.99,23.7013 207.375,207.375 0 0 1 -282.327,152.7877 20,20 0 0 1 -10.0024,-28.0239 l 58.0372,-107.2433 a 20,20 0 0 1 21.4602,-10.1029 47.4,47.4 0 0 0 53.1228,-28.7486 20,20 0 0 1 20.1954,-12.44 z"
     fill="#d98c6c"
     stroke="#ffffff"
     stroke-width="2"
     stroke-linejoin="bevel"
     class="zr0-cls-10"
     id="path11" />
  <path
     d="m 880.90126,585.80155 a 20,20 0 0 1 18.1597,22.6726 385.125,385.125 0 0 1 -84.2834,192.1469 20,20 0 0 1 -28.98,1.9952 l -101.5911,-93.5212 a 20,20 0 0 1 -2.3033,-26.9133 207.375,207.375 0 0 0 40.0259,-91.2497 20,20 0 0 1 21.3607,-16.5333 z"
     fill="#e1a287"
     stroke="#ffffff"
     stroke-width="3"
     stroke-linejoin="bevel"
     class="zr0-cls-11"
     id="path12" />
  <path
     d="m 913.01246,588.46235 a 11.85,11.85 0 0 1 10.7965,13.1402 408.825,408.825 0 0 1 -7.105,42.5781 11.85,11.85 0 0 1 -14.4781,8.9226 v 0 a 11.85,11.85 0 0 1 -8.6601,-14.0522 385.125,385.125 0 0 0 6.6931,-40.1098 11.85,11.85 0 0 1 12.7536,-10.4789 z"
     fill="#ebc0ab"
     stroke="#ffffff"
     stroke-linejoin="bevel"
     class="zr0-cls-12"
     id="path13" />
  <path
     d="m 902.22586,653.10325 a 11.85,11.85 0 0 1 8.4864,14.738 408.825,408.825 0 0 1 -14.0162,40.8279 11.85,11.85 0 0 1 -15.7493,6.4179 v 0 a 11.85,11.85 0 0 1 -6.2291,-15.286 385.125,385.125 0 0 0 13.2037,-38.461 11.85,11.85 0 0 1 14.3045,-8.2368 z"
     fill="#f2d5c5"
     stroke="#ffffff"
     stroke-linejoin="bevel"
     class="zr0-cls-13"
     id="path14" />
  <path
     d="m 880.94676,715.08705 a 11.85,11.85 0 0 1 5.9449,15.9338 408.825,408.825 0 0 1 -20.5451,37.9641 11.85,11.85 0 0 1 -16.5908,3.7381 v 0 a 11.85,11.85 0 0 1 -3.6282,-16.1028 385.125,385.125 0 0 0 19.3541,-35.7632 11.85,11.85 0 0 1 15.4651,-5.77 z"
     fill="#f6e2d4"
     stroke="#ffffff"
     stroke-linejoin="bevel"
     class="zr0-cls-14"
     id="path15" />
  <path
     d="m 849.75576,772.72305 a 11.85,11.85 0 0 1 3.2412,16.695 408.825,408.825 0 0 1 -26.5137,34.0647 11.85,11.85 0 0 1 -16.9798,0.9563 v 0 a 11.85,11.85 0 0 1 -0.9282,-16.4803 385.125,385.125 0 0 0 24.9766,-32.0899 11.85,11.85 0 0 1 16.2039,-3.1458 z"
     fill="#f8e5dc"
     stroke="#ffffff"
     stroke-linejoin="bevel"
     class="zr0-cls-15"
     id="path16" />
  <path
     d="m 785.79756,802.61625 a 20,20 0 0 1 0.4048,29.0457 385.125,385.125 0 0 1 -184.5306,99.863 20,20 0 0 1 -24.0947,-16.2254 l -22.7278,-136.1999 a 20,20 0 0 1 14.7129,-22.6531 207.375,207.375 0 0 0 87.6327,-47.4244 20,20 0 0 1 27.0116,0.0729 z"
     fill="#d29a7c"
     stroke="#ffffff"
     stroke-width="3"
     stroke-linejoin="bevel"
     class="zr0-cls-16"
     id="path17" />
  <path
     d="m 809.50346,824.43905 a 11.85,11.85 0 0 1 0.4491,17.0008 408.825,408.825 0 0 1 -50.4134,43.7831 11.85,11.85 0 0 1 -16.7702,-2.8262 v 0 a 11.85,11.85 0 0 1 2.743,-16.2769 385.125,385.125 0 0 0 47.4909,-41.2449 11.85,11.85 0 0 1 16.5006,-0.4359 z"
     fill="#e4b59f"
     stroke="#ffffff"
     stroke-linejoin="bevel"
     class="zr0-cls-17"
     id="path18" />
  <path
     d="m 742.76896,882.39675 a 11.85,11.85 0 0 1 -3.3255,16.6784 408.825,408.825 0 0 1 -58.8549,31.5368 11.85,11.85 0 0 1 -15.7285,-6.4684 v 0 a 11.85,11.85 0 0 1 6.2781,-15.2659 385.125,385.125 0 0 0 55.443,-29.7086 11.85,11.85 0 0 1 16.1878,3.2277 z"
     fill="#f0d0c0"
     stroke="#ffffff"
     stroke-linejoin="bevel"
     class="zr0-cls-18"
     id="path19" />
  <path
     d="m 664.86006,924.14355 a 11.85,11.85 0 0 1 -6.9351,15.5284 408.825,408.825 0 0 1 -61.0576,17.0839 11.85,11.85 0 0 1 -13.9869,-9.6745 v 0 a 11.85,11.85 0 0 1 9.3899,-13.5754 385.125,385.125 0 0 0 57.518,-16.0935 11.85,11.85 0 0 1 15.0717,6.7311 z"
     fill="#f5e1d2"
     stroke="#ffffff"
     stroke-linejoin="bevel"
     class="zr0-cls-19"
     id="path20" />
  <path
     d="m 577.57706,915.29955 a 20,20 0 0 1 -17.5209,23.1698 385.125,385.125 0 0 1 -206.9576,-34.5351 20,20 0 0 1 -9.0483,-27.6034 l 65.7203,-121.4405 a 20,20 0 0 1 25.5244,-8.8397 207.375,207.375 0 0 0 98.2832,16.4006 20,20 0 0 1 21.2711,16.6484 z"
     fill="#c78b6e"
     stroke="#ffffff"
     stroke-width="3"
     stroke-linejoin="bevel"
     class="zr0-cls-20"
     id="path21" />
  <path
     d="m 582.88046,947.08135 a 11.85,11.85 0 0 1 -10.0877,13.6918 408.825,408.825 0 0 1 -110.4462,0 11.85,11.85 0 0 1 -10.0877,-13.6918 v 0 a 11.85,11.85 0 0 1 13.289,-9.791 385.125,385.125 0 0 0 104.0436,0 11.85,11.85 0 0 1 13.289,9.791 z"
     fill="#dfb09b"
     stroke="#ffffff"
     stroke-linejoin="bevel"
     class="zr0-cls-21"
     id="path22" />
  <path
     d="m 452.25886,947.08135 a 11.85,11.85 0 0 1 -13.9869,9.6745 408.825,408.825 0 0 1 -104.4619,-35.8618 11.85,11.85 0 0 1 -5.0954,-16.2255 v 0 a 11.85,11.85 0 0 1 15.7481,-4.9455 385.125,385.125 0 0 0 98.4062,33.7829 11.85,11.85 0 0 1 9.3899,13.5754 z"
     fill="#ecd1c5"
     stroke="#ffffff"
     stroke-linejoin="bevel"
     class="zr0-cls-22"
     id="path23" />
  <path
     d="m 428.89846,719.54505 a 20,20 0 0 1 -28.9315,6.954 207.375,207.375 0 0 1 95.4679,-376.9943 20,20 0 0 1 22.1348,19.8857 v 121.9403 a 20,20 0 0 1 -14.0653,19.0992 47.4,47.4 0 0 0 -19.8485,78.3802 20,20 0 0 1 3.2798,23.4916 z"
     fill="#7fb7a5"
     stroke="#ffffff"
     stroke-width="2"
     stroke-linejoin="bevel"
     class="zr0-cls-23"
     id="path24" />
  <path
     d="m 344.05026,876.33085 a 20,20 0 0 1 -28.0576,7.5227 385.125,385.125 0 0 1 -142.1067,-154.3691 20,20 0 0 1 9.814,-27.3406 l 126.4528,-55.4673 a 20,20 0 0 1 25.5717,8.7016 207.375,207.375 0 0 0 67.4859,73.3092 20,20 0 0 1 6.5602,26.203 z"
     fill="#97c6b3"
     stroke="#ffffff"
     stroke-width="3"
     stroke-linejoin="bevel"
     class="zr0-cls-24"
     id="path25" />
  <path
     d="m 328.71466,904.66855 a 11.85,11.85 0 0 1 -16.3703,4.6088 408.825,408.825 0 0 1 -36.1379,-23.61 11.85,11.85 0 0 1 -2.3552,-16.8428 v 0 a 11.85,11.85 0 0 1 16.3473,-2.286 385.125,385.125 0 0 0 34.0429,22.2413 11.85,11.85 0 0 1 4.4732,15.8887 z"
     fill="#b5d8cb"
     stroke="#ffffff"
     stroke-linejoin="bevel"
     class="zr0-cls-25"
     id="path26" />
  <path
     d="m 273.85126,868.82455 a 11.85,11.85 0 0 1 -16.9057,1.8514 408.825,408.825 0 0 1 -31.7588,-29.2361 11.85,11.85 0 0 1 0.4491,-17.0008 v 0 a 11.85,11.85 0 0 1 16.5006,0.4359 385.125,385.125 0 0 0 29.9178,27.5412 11.85,11.85 0 0 1 1.797,16.4084 z"
     fill="#cde5dd"
     stroke="#ffffff"
     stroke-linejoin="bevel"
     class="zr0-cls-26"
     id="path27" />
  <path
     d="m 225.63586,824.43905 a 11.85,11.85 0 0 1 -16.9799,-0.9563 408.825,408.825 0 0 1 -26.5136,-34.0647 11.85,11.85 0 0 1 3.2412,-16.695 v 0 a 11.85,11.85 0 0 1 16.2039,3.1458 385.125,385.125 0 0 0 24.9766,32.09 11.85,11.85 0 0 1 -0.9282,16.4802 z"
     fill="#dfece6"
     stroke="#ffffff"
     stroke-linejoin="bevel"
     class="zr0-cls-27"
     id="path28" />
  <path
     d="m 185.38356,772.72305 a 11.85,11.85 0 0 1 -16.5908,-3.7381 408.825,408.825 0 0 1 -20.5451,-37.9641 11.85,11.85 0 0 1 5.9449,-15.9338 v 0 a 11.85,11.85 0 0 1 15.4651,5.77 385.125,385.125 0 0 0 19.3541,35.7633 11.85,11.85 0 0 1 -3.6282,16.1027 z"
     fill="#e9f2ed"
     stroke="#ffffff"
     stroke-linejoin="bevel"
     class="zr0-cls-28"
     id="path29" />
  <path
     d="m 183.69996,702.14385 a 20,20 0 0 1 -26.762,-11.2968 385.125,385.125 0 0 1 -17.3267,-209.1027 20,20 0 0 1 24.5375,-15.5476 l 133.8579,33.8974 a 20,20 0 0 1 14.835,22.5733 207.375,207.375 0 0 0 8.2284,99.3019 20,20 0 0 1 -10.9173,24.7072 z"
     fill="#8dbcc2"
     stroke="#ffffff"
     stroke-width="3"
     stroke-linejoin="bevel"
     class="zr0-cls-29"
     id="path30" />
  <path
     d="m 154.19256,715.08705 a 11.85,11.85 0 0 1 -15.7493,-6.4179 408.825,408.825 0 0 1 -27.1129,-107.0666 11.85,11.85 0 0 1 10.7965,-13.1402 v 0 a 11.85,11.85 0 0 1 12.7536,10.4789 385.125,385.125 0 0 0 25.5412,100.8598 11.85,11.85 0 0 1 -6.2291,15.286 z"
     fill="#b0d2d7"
     stroke="#ffffff"
     stroke-linejoin="bevel"
     class="zr0-cls-30"
     id="path31" />
  <path
     d="m 122.12686,588.46235 a 11.85,11.85 0 0 1 -12.8121,-11.1839 408.825,408.825 0 0 1 9.1206,-110.069 11.85,11.85 0 0 1 14.4781,-8.9226 v 0 a 11.85,11.85 0 0 1 8.6601,14.0522 385.125,385.125 0 0 0 -8.5918,103.6882 11.85,11.85 0 0 1 -10.8549,12.4351 z"
     fill="#cde6e9"
     stroke="#ffffff"
     stroke-linejoin="bevel"
     class="zr0-cls-31"
     id="path32" />
  <path
     d="m 164.14876,466.19675 a 20,20 0 0 1 -14.1802,-25.3524 385.125,385.125 0 0 1 114.7602,-175.6536 20,20 0 0 1 28.9132,2.802 l 84.8124,108.967 a 20,20 0 0 1 -2.1579,26.9253 207.375,207.375 0 0 0 -54.4991,83.4171 20,20 0 0 1 -23.7907,12.792 z"
     fill="#9cafc7"
     stroke="#ffffff"
     stroke-width="3"
     stroke-linejoin="bevel"
     class="zr0-cls-32"
     id="path33" />
  <path
     d="m 132.91346,458.28685 a 11.85,11.85 0 0 1 -8.4864,-14.738 408.825,408.825 0 0 1 23.4988,-62.5002 11.85,11.85 0 0 1 16.0941,-5.4962 v 0 a 11.85,11.85 0 0 1 5.3345,15.6207 385.125,385.125 0 0 0 -22.1365,58.8769 11.85,11.85 0 0 1 -14.3045,8.2368 z"
     fill="#bbcfe0"
     stroke="#ffffff"
     stroke-linejoin="bevel"
     class="zr0-cls-33"
     id="path34" />
  <path
     d="m 164.01996,375.55245 a 11.85,11.85 0 0 1 -5.0133,-16.251 408.825,408.825 0 0 1 36.7514,-55.7476 11.85,11.85 0 0 1 16.9115,-1.7971 v 0 a 11.85,11.85 0 0 1 1.7442,16.414 385.125,385.125 0 0 0 -34.6209,52.5159 11.85,11.85 0 0 1 -15.7729,4.8658 z"
     fill="#d5e3ec"
     stroke="#ffffff"
     stroke-linejoin="bevel"
     class="zr0-cls-34"
     id="path35" />
  <path
     d="m 212.66956,301.75675 a 11.85,11.85 0 0 1 -1.2915,-16.9576 408.825,408.825 0 0 1 45.5675,-44.085 11.85,11.85 0 0 1 16.9057,1.8514 v 0 a 11.85,11.85 0 0 1 -1.797,16.4084 385.125,385.125 0 0 0 -42.926,41.5293 11.85,11.85 0 0 1 -16.4587,1.2535 z"
     fill="#e6edf5"
     stroke="#ffffff"
     stroke-linejoin="bevel"
     class="zr0-cls-35"
     id="path36" />
  <path
     d="m 293.64196,267.99275 a 20,20 0 0 1 4.3815,-28.7163 385.125,385.125 0 0 1 198.4507,-68.1282 20,20 0 0 1 21.0955,19.97 v 138.0831 a 20,20 0 0 1 -18.2408,19.9225 207.375,207.375 0 0 0 -94.2433,32.3538 20,20 0 0 1 -26.6312,-4.5179 z"
     fill="#a7b0c9"
     stroke="#ffffff"
     stroke-width="3"
     stroke-linejoin="bevel"
     class="zr0-cls-36"
     id="path37" />
  <path
     d="m 273.85126,242.56555 a 11.85,11.85 0 0 1 2.3552,-16.8428 408.825,408.825 0 0 1 36.1379,-23.61 11.85,11.85 0 0 1 16.3703,4.6088 v 0 a 11.85,11.85 0 0 1 -4.4732,15.8887 385.125,385.125 0 0 0 -34.0429,22.2413 11.85,11.85 0 0 1 -16.3473,-2.286 z"
     fill="#c0c9dd"
     stroke="#ffffff"
     stroke-linejoin="bevel"
     class="zr0-cls-37"
     id="path38" />
  <path
     d="m 328.71466,206.72155 a 11.85,11.85 0 0 1 5.0954,-16.2255 408.825,408.825 0 0 1 39.531,-17.3399 11.85,11.85 0 0 1 15.3885,7.2404 v 0 a 11.85,11.85 0 0 1 -7.0274,14.9358 385.125,385.125 0 0 0 -37.2394,16.3347 11.85,11.85 0 0 1 -15.7481,-4.9455 z"
     fill="#d5ddf2"
     stroke="#ffffff"
     stroke-linejoin="bevel"
     class="zr0-cls-38"
     id="path39" />
  <path
     d="m 388.72956,180.39655 a 11.85,11.85 0 0 1 7.6965,-15.1655 408.825,408.825 0 0 1 41.8459,-10.5968 11.85,11.85 0 0 1 13.9869,9.6745 v 0 a 11.85,11.85 0 0 1 -9.3899,13.5754 385.125,385.125 0 0 0 -39.4201,9.9825 11.85,11.85 0 0 1 -14.7193,-7.4701 z"
     fill="#e4e9f8"
     stroke="#ffffff"
     stroke-linejoin="bevel"
     class="zr0-cls-39"
     id="path40" />
  <path
     d="m 452.25886,164.30875 a 11.85,11.85 0 0 1 10.0877,-13.6918 408.825,408.825 0 0 1 43.0194,-3.5647 11.85,11.85 0 0 1 12.2037,11.8447 v 0 a 11.85,11.85 0 0 1 -11.4963,11.8447 385.125,385.125 0 0 0 -40.5255,3.3581 11.85,11.85 0 0 1 -13.289,-9.791 z"
     fill="#edf1fb"
     stroke="#ffffff"
     stroke-linejoin="bevel"
     class="zr0-cls-28"
     id="path41" />
  <text
     dominant-baseline="central"
     text-anchor="middle"
     style="font-weight:600;font-size:24.0003px;font-family:'Microsoft YaHei';stroke-width:1.00001"
     xml:space="preserve"
     y="-144.11328"
     transform="rotate(47.391004)"
     fill="#ffffff"
     id="text41"
     x="759.32648">L1: Perception &amp;</text>
  <text
     dominant-baseline="central"
     text-anchor="middle"
     style="font-weight:600;font-size:24.0003px;font-family:'Microsoft YaHei';stroke-width:1.00001"
     y="-120.11298"
     transform="rotate(47.391004)"
     fill="#ffffff"
     id="text42"
     x="759.32648">Aggregation</text>
  <text
     dominant-baseline="central"
     text-anchor="middle"
     style="font-size:20.0066px;font-family:'Microsoft YaHei'"
     transform="rotate(23.694971)"
     fill="#222222"
     stroke="#ffffff"
     stroke-width="2.00066"
     paint-order="stroke"
     stroke-miterlimit="2"
     id="text43"
     x="697.19757"
     y="4.6044312">Visual-Only</text>
  <text
     dominant-baseline="central"
     text-anchor="start"
     style="font-size:16.0046px;font-family:'Microsoft YaHei'"
     x="-60.339108"
     transform="rotate(-82.185819)"
     fill="#111111"
     stroke="#ffffff"
     stroke-width="2.00058"
     paint-order="stroke"
     stroke-miterlimit="2"
     id="text44"
     y="588.328">Recognition</text>
  <text
     dominant-baseline="central"
     text-anchor="start"
     style="font-size:15.9943px;font-family:'Microsoft YaHei'"
     x="116.13587"
     y="687.92126"
     transform="rotate(-66.538)"
     fill="#111111"
     stroke="#ffffff"
     stroke-width="1.99929"
     paint-order="stroke"
     stroke-miterlimit="2"
     id="text45">Spatial</text>
  <text
     dominant-baseline="central"
     text-anchor="start"
     style="font-size:15.9943px;font-family:'Microsoft YaHei'"
     x="116.13587"
     y="703.91565"
     transform="rotate(-66.538)"
     fill="#111111"
     stroke="#ffffff"
     stroke-width="1.99929"
     paint-order="stroke"
     stroke-miterlimit="2"
     id="text46">Counting</text>
  <text
     dominant-baseline="central"
     text-anchor="start"
     style="font-size:16.0083px;font-family:'Microsoft YaHei'"
     x="317.9119"
     y="744.47498"
     transform="rotate(-50.678359)"
     fill="#111111"
     stroke="#ffffff"
     stroke-width="2.00103"
     paint-order="stroke"
     stroke-miterlimit="2"
     id="text47">Visual</text>
  <text
     dominant-baseline="central"
     text-anchor="start"
     style="font-size:16.0083px;font-family:'Microsoft YaHei'"
     x="317.9119"
     y="760.48322"
     transform="rotate(-50.678359)"
     fill="#111111"
     stroke="#ffffff"
     stroke-width="2.00103"
     paint-order="stroke"
     stroke-miterlimit="2"
     id="text48">Calculation</text>
  <text
     dominant-baseline="central"
     text-anchor="middle"
     style="font-size:20.0054px;font-family:'Microsoft YaHei'"
     y="-615.18921"
     transform="rotate(71.039749)"
     fill="#222222"
     stroke="#ffffff"
     stroke-width="2.00054"
     paint-order="stroke"
     stroke-miterlimit="2"
     id="text49"
     x="693.77667">Audio-Visual</text>
  <text
     dominant-baseline="central"
     text-anchor="middle"
     style="font-size:20.0054px;font-family:'Microsoft YaHei'"
     y="-595.18378"
     transform="rotate(71.039749)"
     fill="#222222"
     stroke="#ffffff"
     stroke-width="2.00054"
     paint-order="stroke"
     stroke-miterlimit="2"
     id="text50"
     x="693.77667">Fusion</text>
  <text
     dominant-baseline="central"
     text-anchor="start"
     style="font-size:16.0007px;font-family:'Microsoft YaHei'"
     x="527.44366"
     y="743.7453"
     transform="rotate(-34.818354)"
     fill="#111111"
     stroke="#ffffff"
     stroke-width="2.00008"
     paint-order="stroke"
     stroke-miterlimit="2"
     id="text51">Cross-Modal</text>
  <text
     dominant-baseline="central"
     text-anchor="start"
     style="font-size:16.0007px;font-family:'Microsoft YaHei'"
     x="527.44366"
     y="759.74591"
     transform="rotate(-34.818354)"
     fill="#111111"
     stroke="#ffffff"
     stroke-width="2.00008"
     paint-order="stroke"
     stroke-miterlimit="2"
     id="text52">Matching</text>
  <text
     dominant-baseline="central"
     text-anchor="start"
     style="font-size:15.995px;font-family:'Microsoft YaHei'"
     x="725.68042"
     y="687.29303"
     transform="rotate(-19.214312)"
     fill="#111111"
     stroke="#ffffff"
     stroke-width="1.99938"
     paint-order="stroke"
     stroke-miterlimit="2"
     id="text53">Audio→Visual</text>
  <text
     dominant-baseline="central"
     text-anchor="start"
     style="font-size:15.995px;font-family:'Microsoft YaHei'"
     x="725.68042"
     y="703.28802"
     transform="rotate(-19.214312)"
     fill="#111111"
     stroke="#ffffff"
     stroke-width="1.99938"
     paint-order="stroke"
     stroke-miterlimit="2"
     id="text54">QA</text>
  <text
     dominant-baseline="central"
     text-anchor="start"
     style="font-size:15.9949px;font-family:'Microsoft YaHei'"
     x="904.2804"
     y="576.86432"
     transform="rotate(-3.3260736)"
     fill="#111111"
     stroke="#ffffff"
     stroke-width="1.99937"
     paint-order="stroke"
     stroke-miterlimit="2"
     id="text55">Visual→Audio</text>
  <text
     dominant-baseline="central"
     text-anchor="start"
     style="font-size:15.9949px;font-family:'Microsoft YaHei'"
     x="904.2804"
     y="592.85925"
     transform="rotate(-3.3260736)"
     fill="#111111"
     stroke="#ffffff"
     stroke-width="1.99937"
     paint-order="stroke"
     stroke-miterlimit="2"
     id="text56">QA</text>
  <text
     dominant-baseline="central"
     text-anchor="middle"
     style="font-weight:600;font-size:23.9906px;font-family:'Microsoft YaHei';stroke-width:0.999608"
     xml:space="preserve"
     y="850.49915"
     transform="rotate(-28.436629)"
     fill="#ffffff"
     id="text57"
     x="190.47279">L2: Temporal</text>
  <text
     dominant-baseline="central"
     text-anchor="middle"
     style="font-weight:600;font-size:23.9906px;font-family:'Microsoft YaHei';stroke-width:0.999608"
     y="874.48975"
     transform="rotate(-28.436629)"
     fill="#ffffff"
     id="text58"
     x="190.47279">Understanding</text>
  <text
     dominant-baseline="central"
     text-anchor="middle"
     style="font-size:20.0066px;font-family:'Microsoft YaHei'"
     xml:space="preserve"
     y="983.49982"
     transform="rotate(-66.305029)"
     fill="#222222"
     stroke="#ffffff"
     stroke-width="2.00066"
     paint-order="stroke"
     stroke-miterlimit="2"
     id="text59"
     x="-300.7988">Action &amp;</text>
  <text
     dominant-baseline="central"
     text-anchor="middle"
     style="font-size:20.0066px;font-family:'Microsoft YaHei'"
     y="1003.5064"
     transform="rotate(-66.305029)"
     fill="#222222"
     stroke="#ffffff"
     stroke-width="2.00066"
     paint-order="stroke"
     stroke-miterlimit="2"
     id="text60"
     x="-300.7988">Motion</text>
  <text
     dominant-baseline="central"
     text-anchor="start"
     style="font-size:15.9954px;font-family:'Microsoft YaHei'"
     x="1022.011"
     y="454.46249"
     transform="rotate(9.5000106)"
     fill="#111111"
     stroke="#ffffff"
     stroke-width="1.99942"
     paint-order="stroke"
     stroke-miterlimit="2"
     id="text61">Action</text>
  <text
     dominant-baseline="central"
     text-anchor="start"
     style="font-size:15.9954px;font-family:'Microsoft YaHei'"
     x="1022.011"
     y="470.45786"
     transform="rotate(9.5000106)"
     fill="#111111"
     stroke="#ffffff"
     stroke-width="1.99942"
     paint-order="stroke"
     stroke-miterlimit="2"
     id="text62">Recognition</text>
  <text
     dominant-baseline="central"
     text-anchor="start"
     style="font-size:16.0043px;font-family:'Microsoft YaHei'"
     x="1089.8672"
     y="349.28555"
     transform="rotate(18.960251)"
     fill="#111111"
     stroke="#ffffff"
     stroke-width="2.00054"
     paint-order="stroke"
     stroke-miterlimit="2"
     id="text63">Repetitive</text>
  <text
     dominant-baseline="central"
     text-anchor="start"
     style="font-size:16.0043px;font-family:'Microsoft YaHei'"
     x="1089.8672"
     y="365.28989"
     transform="rotate(18.960251)"
     fill="#111111"
     stroke="#ffffff"
     stroke-width="2.00054"
     paint-order="stroke"
     stroke-miterlimit="2"
     id="text64">Counting</text>
  <text
     dominant-baseline="central"
     text-anchor="start"
     style="font-size:15.9937px;font-family:'Microsoft YaHei'"
     x="1139.559"
     y="234.07825"
     transform="rotate(28.436629)"
     fill="#111111"
     stroke="#ffffff"
     stroke-width="1.99922"
     paint-order="stroke"
     stroke-miterlimit="2"
     id="text65">Temporal</text>
  <text
     dominant-baseline="central"
     text-anchor="start"
     style="font-size:15.9937px;font-family:'Microsoft YaHei'"
     x="1139.559"
     y="250.07198"
     transform="rotate(28.436629)"
     fill="#111111"
     stroke="#ffffff"
     stroke-width="1.99922"
     paint-order="stroke"
     stroke-miterlimit="2"
     id="text66">Localization</text>
  <text
     dominant-baseline="central"
     text-anchor="start"
     style="font-size:15.9961px;font-family:'Microsoft YaHei'"
     x="1169.5638"
     y="112.72047"
     transform="rotate(37.890063)"
     fill="#111111"
     stroke="#ffffff"
     stroke-width="1.99952"
     paint-order="stroke"
     stroke-miterlimit="2"
     id="text67">Motion</text>
  <text
     dominant-baseline="central"
     text-anchor="start"
     style="font-size:15.9961px;font-family:'Microsoft YaHei'"
     x="1169.5638"
     y="128.7166"
     transform="rotate(37.890063)"
     fill="#111111"
     stroke="#ffffff"
     stroke-width="1.99952"
     paint-order="stroke"
     stroke-miterlimit="2"
     id="text68">Analysis</text>
  <text
     dominant-baseline="central"
     text-anchor="middle"
     style="font-size:19.9922px;font-family:'Microsoft YaHei'"
     y="1021.3608"
     transform="rotate(-28.436629)"
     fill="#222222"
     stroke="#ffffff"
     stroke-width="1.99922"
     paint-order="stroke"
     stroke-miterlimit="2"
     id="text69"
     x="190.42694">Sequential</text>
  <text
     dominant-baseline="central"
     text-anchor="middle"
     style="font-size:19.9922px;font-family:'Microsoft YaHei'"
     y="1041.353"
     transform="rotate(-28.436629)"
     fill="#222222"
     stroke="#ffffff"
     stroke-width="1.99922"
     paint-order="stroke"
     stroke-miterlimit="2"
     id="text70"
     x="190.42694">Reasoning</text>
  <text
     dominant-baseline="central"
     text-anchor="start"
     style="font-size:16.0029px;font-family:'Microsoft YaHei'"
     x="1178.7646"
     transform="rotate(49.013467)"
     fill="#111111"
     stroke="#ffffff"
     stroke-width="2.00036"
     paint-order="stroke"
     stroke-miterlimit="2"
     id="text71"
     y="-26.131611">Ordering</text>
  <text
     dominant-baseline="central"
     text-anchor="start"
     style="font-size:15.9916px;font-family:'Microsoft YaHei'"
     x="1154.0695"
     y="-201.81638"
     transform="rotate(61.819605)"
     fill="#111111"
     stroke="#ffffff"
     stroke-width="1.99894"
     paint-order="stroke"
     stroke-miterlimit="2"
     id="text72">State</text>
  <text
     dominant-baseline="central"
     text-anchor="start"
     style="font-size:15.9916px;font-family:'Microsoft YaHei'"
     x="1154.0695"
     y="-185.82481"
     transform="rotate(61.819605)"
     fill="#111111"
     stroke="#ffffff"
     stroke-width="1.99894"
     paint-order="stroke"
     stroke-miterlimit="2"
     id="text73">Change</text>
  <text
     dominant-baseline="central"
     text-anchor="start"
     style="font-size:15.9978px;font-family:'Microsoft YaHei'"
     x="1094.2759"
     transform="rotate(74.39307)"
     fill="#111111"
     stroke="#ffffff"
     stroke-width="1.99973"
     paint-order="stroke"
     stroke-miterlimit="2"
     id="text74"
     y="-349.16272">Periodicity</text>
  <text
     dominant-baseline="central"
     text-anchor="middle"
     style="font-size:19.9942px;font-family:'Microsoft YaHei'"
     y="748.90308"
     transform="rotate(9.5000106)"
     fill="#222222"
     stroke="#ffffff"
     stroke-width="1.99942"
     paint-order="stroke"
     stroke-miterlimit="2"
     id="text75"
     x="602.32391">Event-Level</text>
  <text
     dominant-baseline="central"
     text-anchor="middle"
     style="font-size:19.9942px;font-family:'Microsoft YaHei'"
     y="768.89728"
     transform="rotate(9.5000106)"
     fill="#222222"
     stroke="#ffffff"
     stroke-width="1.99942"
     paint-order="stroke"
     stroke-miterlimit="2"
     id="text76"
     x="602.32391">Temporal</text>
  <text
     dominant-baseline="central"
     text-anchor="start"
     style="font-size:16px;font-family:'Microsoft YaHei'"
     x="975.52002"
     y="-525.56964"
     transform="rotate(90)"
     fill="#111111"
     stroke="#ffffff"
     stroke-width="2"
     paint-order="stroke"
     stroke-miterlimit="2"
     id="text77">Causal</text>
  <text
     dominant-baseline="central"
     text-anchor="start"
     style="font-size:16px;font-family:'Microsoft YaHei'"
     x="975.52002"
     y="-509.56964"
     transform="rotate(90)"
     fill="#111111"
     stroke="#ffffff"
     stroke-width="2"
     paint-order="stroke"
     stroke-miterlimit="2"
     id="text78">Reasoning</text>
  <text
     dominant-baseline="central"
     text-anchor="end"
     style="font-size:16.0043px;font-family:'Microsoft YaHei'"
     x="-777.20734"
     y="662.13141"
     transform="rotate(-71.039749)"
     fill="#111111"
     stroke="#ffffff"
     stroke-width="2.00054"
     paint-order="stroke"
     stroke-miterlimit="2"
     id="text79">Short-term</text>
  <text
     dominant-baseline="central"
     text-anchor="end"
     style="font-size:16.0043px;font-family:'Microsoft YaHei'"
     x="-777.20734"
     y="678.13574"
     transform="rotate(-71.039749)"
     fill="#111111"
     stroke="#ffffff"
     stroke-width="2.00054"
     paint-order="stroke"
     stroke-miterlimit="2"
     id="text80">Prediction</text>
  <text
     dominant-baseline="central"
     text-anchor="middle"
     style="font-weight:600;font-size:23.9878px;font-family:'Microsoft YaHei';stroke-width:0.999493"
     xml:space="preserve"
     y="498.6124"
     transform="rotate(-75.81082)"
     fill="#ffffff"
     id="text81"
     x="-411.82535">L3: Complex</text>
  <text
     dominant-baseline="central"
     text-anchor="middle"
     style="font-weight:600;font-size:23.9878px;font-family:'Microsoft YaHei';stroke-width:0.999493"
     y="522.60022"
     transform="rotate(-75.81082)"
     fill="#ffffff"
     id="text82"
     x="-411.82535">Reasoning</text>
  <text
     dominant-baseline="central"
     text-anchor="middle"
     style="font-size:20.0002px;font-family:'Microsoft YaHei'"
     y="281.5242"
     transform="rotate(47.391004)"
     fill="#222222"
     stroke="#ffffff"
     stroke-width="2.00003"
     paint-order="stroke"
     stroke-miterlimit="2"
     id="text83"
     x="759.49353">Narrative</text>
  <text
     dominant-baseline="central"
     text-anchor="middle"
     style="font-size:20.0002px;font-family:'Microsoft YaHei'"
     y="301.52444"
     transform="rotate(47.391004)"
     fill="#222222"
     stroke="#ffffff"
     stroke-width="2.00003"
     paint-order="stroke"
     stroke-miterlimit="2"
     id="text84"
     x="759.49353">Comprehension</text>
  <text
     dominant-baseline="central"
     text-anchor="end"
     style="font-size:15.9982px;font-family:'Microsoft YaHei'"
     x="-601.85065"
     y="729.30939"
     transform="rotate(-56.834401)"
     fill="#111111"
     stroke="#ffffff"
     stroke-width="1.99978"
     paint-order="stroke"
     stroke-miterlimit="2"
     id="text85">Turning</text>
  <text
     dominant-baseline="central"
     text-anchor="end"
     style="font-size:15.9982px;font-family:'Microsoft YaHei'"
     x="-601.85065"
     y="745.30762"
     transform="rotate(-56.834401)"
     fill="#111111"
     stroke="#ffffff"
     stroke-width="1.99978"
     paint-order="stroke"
     stroke-miterlimit="2"
     id="text86">Point</text>
  <text
     dominant-baseline="central"
     text-anchor="end"
     style="font-size:16.0002px;font-family:'Microsoft YaHei'"
     x="-478.42114"
     y="748.96417"
     transform="rotate(-47.391004)"
     fill="#111111"
     stroke="#ffffff"
     stroke-width="2.00003"
     paint-order="stroke"
     stroke-miterlimit="2"
     id="text87">Narrative</text>
  <text
     dominant-baseline="central"
     text-anchor="end"
     style="font-size:16.0002px;font-family:'Microsoft YaHei'"
     x="-478.42114"
     y="764.96436"
     transform="rotate(-47.391004)"
     fill="#111111"
     stroke="#ffffff"
     stroke-width="2.00003"
     paint-order="stroke"
     stroke-miterlimit="2"
     id="text88">Cloze</text>
  <text
     dominant-baseline="central"
     text-anchor="end"
     style="font-size:15.9961px;font-family:'Microsoft YaHei'"
     x="-352.64166"
     y="748.44952"
     transform="rotate(-37.890063)"
     fill="#111111"
     stroke="#ffffff"
     stroke-width="1.99952"
     paint-order="stroke"
     stroke-miterlimit="2"
     id="text89">Symbolic</text>
  <text
     dominant-baseline="central"
     text-anchor="end"
     style="font-size:15.9961px;font-family:'Microsoft YaHei'"
     x="-352.64166"
     y="764.44568"
     transform="rotate(-37.890063)"
     fill="#111111"
     stroke="#ffffff"
     stroke-width="1.99952"
     paint-order="stroke"
     stroke-miterlimit="2"
     id="text90">Interpretation</text>
  <text
     dominant-baseline="central"
     text-anchor="end"
     style="font-size:15.9937px;font-family:'Microsoft YaHei'"
     x="-229.31511"
     y="726.99756"
     transform="rotate(-28.436629)"
     fill="#111111"
     stroke="#ffffff"
     stroke-width="1.99922"
     paint-order="stroke"
     stroke-miterlimit="2"
     id="text91">Cinematic</text>
  <text
     dominant-baseline="central"
     text-anchor="end"
     style="font-size:15.9937px;font-family:'Microsoft YaHei'"
     x="-229.31511"
     y="742.99133"
     transform="rotate(-28.436629)"
     fill="#111111"
     stroke="#ffffff"
     stroke-width="1.99922"
     paint-order="stroke"
     stroke-miterlimit="2"
     id="text92">Technique</text>
  <text
     dominant-baseline="central"
     text-anchor="middle"
     style="font-size:20.009px;font-family:'Microsoft YaHei'"
     y="-183.43788"
     transform="rotate(85.241114)"
     fill="#222222"
     stroke="#ffffff"
     stroke-width="2.0009"
     paint-order="stroke"
     stroke-miterlimit="2"
     id="text93"
     x="596.60437">Knowledge</text>
  <text
     dominant-baseline="central"
     text-anchor="middle"
     style="font-size:20.009px;font-family:'Microsoft YaHei'"
     y="-163.42891"
     transform="rotate(85.241114)"
     fill="#222222"
     stroke="#ffffff"
     stroke-width="2.0009"
     paint-order="stroke"
     stroke-miterlimit="2"
     id="text94"
     x="596.60437">Grounding</text>
  <text
     dominant-baseline="central"
     text-anchor="end"
     style="font-size:15.9919px;font-family:'Microsoft YaHei'"
     x="-54.256855"
     y="657.7688"
     transform="rotate(-14.18918)"
     fill="#111111"
     stroke="#ffffff"
     stroke-width="1.99899"
     paint-order="stroke"
     stroke-miterlimit="2"
     id="text95">Concept</text>
  <text
     dominant-baseline="central"
     text-anchor="end"
     style="font-size:15.9919px;font-family:'Microsoft YaHei'"
     x="-54.256855"
     y="673.76068"
     transform="rotate(-14.18918)"
     fill="#111111"
     stroke="#ffffff"
     stroke-width="1.99899"
     paint-order="stroke"
     stroke-miterlimit="2"
     id="text96">Acquisition</text>
  <text
     dominant-baseline="central"
     text-anchor="end"
     style="font-size:16.0072px;font-family:'Microsoft YaHei'"
     x="142.05972"
     y="502.99597"
     transform="rotate(4.7588857)"
     fill="#111111"
     stroke="#ffffff"
     stroke-width="2.0009"
     paint-order="stroke"
     stroke-miterlimit="2"
     id="text97">Skill</text>
  <text
     dominant-baseline="central"
     text-anchor="end"
     style="font-size:16.0072px;font-family:'Microsoft YaHei'"
     x="142.05972"
     y="519.00317"
     transform="rotate(4.7588857)"
     fill="#111111"
     stroke="#ffffff"
     stroke-width="2.0009"
     paint-order="stroke"
     stroke-miterlimit="2"
     id="text98">Learning</text>
  <text
     dominant-baseline="central"
     text-anchor="middle"
     style="font-size:19.9978px;font-family:'Microsoft YaHei'"
     y="431.00391"
     transform="rotate(-56.834401)"
     fill="#222222"
     stroke="#ffffff"
     stroke-width="1.99978"
     paint-order="stroke"
     stroke-miterlimit="2"
     id="text99"
     x="-182.06621">Social</text>
  <text
     dominant-baseline="central"
     text-anchor="middle"
     style="font-size:19.9978px;font-family:'Microsoft YaHei'"
     y="451.00171"
     transform="rotate(-56.834401)"
     fill="#222222"
     stroke="#ffffff"
     stroke-width="1.99978"
     paint-order="stroke"
     stroke-miterlimit="2"
     id="text100"
     x="-182.06621">Intelligence</text>
  <text
     dominant-baseline="central"
     text-anchor="end"
     style="font-size:16px;font-family:'Microsoft YaHei'"
     x="260.22479"
     y="329.97803"
     transform="rotate(20.609693)"
     fill="#111111"
     stroke="#ffffff"
     stroke-width="2"
     paint-order="stroke"
     stroke-miterlimit="2"
     id="text101">Individual</text>
  <text
     dominant-baseline="central"
     text-anchor="end"
     style="font-size:16px;font-family:'Microsoft YaHei'"
     x="260.22479"
     y="345.97803"
     transform="rotate(20.609693)"
     fill="#111111"
     stroke="#ffffff"
     stroke-width="2"
     paint-order="stroke"
     stroke-miterlimit="2"
     id="text102">Cognition</text>
  <text
     dominant-baseline="central"
     text-anchor="end"
     style="font-size:15.9978px;font-family:'Microsoft YaHei'"
     x="318.08026"
     y="171.205"
     transform="rotate(33.372202)"
     fill="#111111"
     stroke="#ffffff"
     stroke-width="1.99972"
     paint-order="stroke"
     stroke-miterlimit="2"
     id="text103">Dyadic</text>
  <text
     dominant-baseline="central"
     text-anchor="end"
     style="font-size:15.9978px;font-family:'Microsoft YaHei'"
     x="318.08026"
     y="187.2028"
     transform="rotate(33.372202)"
     fill="#111111"
     stroke="#ffffff"
     stroke-width="1.99972"
     paint-order="stroke"
     stroke-miterlimit="2"
     id="text104">Interaction</text>
  <text
     dominant-baseline="central"
     text-anchor="end"
     style="font-size:15.9999px;font-family:'Microsoft YaHei'"
     x="339.43607"
     y="6.2563682"
     transform="rotate(45.972395)"
     fill="#111111"
     stroke="#ffffff"
     stroke-width="1.99999"
     paint-order="stroke"
     stroke-miterlimit="2"
     id="text105">Collective</text>
  <text
     dominant-baseline="central"
     text-anchor="end"
     style="font-size:15.9999px;font-family:'Microsoft YaHei'"
     x="339.43607"
     y="22.256256"
     transform="rotate(45.972395)"
     fill="#111111"
     stroke="#ffffff"
     stroke-width="1.99999"
     paint-order="stroke"
     stroke-miterlimit="2"
     id="text106">Dynamics</text>
  <text
     dominant-baseline="central"
     text-anchor="middle"
     style="font-size:20.0054px;font-family:'Microsoft YaHei'"
     xml:space="preserve"
     y="387.45731"
     transform="rotate(-18.960251)"
     fill="#222222"
     stroke="#ffffff"
     stroke-width="2.00054"
     paint-order="stroke"
     stroke-miterlimit="2"
     id="text107"
     x="309.00308">Physical &amp;</text>
  <text
     dominant-baseline="central"
     text-anchor="middle"
     style="font-size:20.0054px;font-family:'Microsoft YaHei'"
     y="407.46271"
     transform="rotate(-18.960251)"
     fill="#222222"
     stroke="#ffffff"
     stroke-width="2.00054"
     paint-order="stroke"
     stroke-miterlimit="2"
     id="text108"
     x="309.00308">Spatial</text>
  <text
     dominant-baseline="central"
     text-anchor="end"
     style="font-size:15.9982px;font-family:'Microsoft YaHei'"
     x="328.48611"
     y="-137.30972"
     transform="rotate(56.834401)"
     fill="#111111"
     stroke="#ffffff"
     stroke-width="1.99978"
     paint-order="stroke"
     stroke-miterlimit="2"
     id="text109">Object</text>
  <text
     dominant-baseline="central"
     text-anchor="end"
     style="font-size:15.9982px;font-family:'Microsoft YaHei'"
     x="328.48611"
     y="-121.3115"
     transform="rotate(56.834401)"
     fill="#111111"
     stroke="#ffffff"
     stroke-width="1.99978"
     paint-order="stroke"
     stroke-miterlimit="2"
     id="text110">Permanence</text>
  <text
     dominant-baseline="central"
     text-anchor="end"
     style="font-size:16.0053px;font-family:'Microsoft YaHei'"
     xml:space="preserve"
     x="297.01617"
     transform="rotate(66.305029)"
     fill="#111111"
     stroke="#ffffff"
     stroke-width="2.00066"
     paint-order="stroke"
     stroke-miterlimit="2"
     id="text111"
     y="-250.69943">3D Spatial</text>
  <text
     dominant-baseline="central"
     text-anchor="end"
     style="font-size:15.9919px;font-family:'Microsoft YaHei'"
     x="245.78867"
     transform="rotate(75.81082)"
     fill="#111111"
     stroke="#ffffff"
     stroke-width="1.99899"
     paint-order="stroke"
     stroke-miterlimit="2"
     id="text112"
     y="-365.41095">Counterfactual</text>
  <text
     dominant-baseline="central"
     text-anchor="end"
     style="font-size:16.0072px;font-family:'Microsoft YaHei'"
     x="176.89069"
     transform="rotate(85.241114)"
     fill="#111111"
     stroke="#ffffff"
     stroke-width="2.0009"
     paint-order="stroke"
     stroke-miterlimit="2"
     id="text113"
     y="-469.84262">Counterintuitive</text>
  <defs
     id="defs113">
    <filter
       id="zr0-s0"
       x="-0.015807398"
       y="-0.015822785"
       width="1.0316148"
       height="1.0309533">
      <feDropShadow
         dx="0"
         dy="0"
         stdDeviation="3 3"
         flood-color="rgb(0,0,0)"
         flood-opacity="0.1" />
    </filter>
  </defs>
  <style
     id="style113"><![CDATA[
.zr0-cls-0:hover {
cursor:pointer;
fill:rgba(63,104,137,1);
}
.zr0-cls-1:hover {
cursor:pointer;
fill:rgba(117,169,215,1);
}
.zr0-cls-2:hover {
cursor:pointer;
fill:rgba(157,196,238,1);
}
.zr0-cls-3:hover {
cursor:pointer;
fill:rgba(196,229,255,1);
}
.zr0-cls-4:hover {
cursor:pointer;
fill:rgba(221,246,255,1);
}
.zr0-cls-5:hover {
cursor:pointer;
fill:rgba(240,255,255,1);
}
.zr0-cls-6:hover {
cursor:pointer;
fill:rgba(139,181,235,1);
}
.zr0-cls-7:hover {
cursor:pointer;
fill:rgba(179,217,255,1);
}
.zr0-cls-8:hover {
cursor:pointer;
fill:rgba(211,239,255,1);
}
.zr0-cls-9:hover {
cursor:pointer;
fill:rgba(234,253,255,1);
}
.zr0-cls-10:hover {
cursor:pointer;
fill:rgba(238,154,118,1);
}
.zr0-cls-11:hover {
cursor:pointer;
fill:rgba(247,178,148,1);
}
.zr0-cls-12:hover {
cursor:pointer;
fill:rgba(255,211,188,1);
}
.zr0-cls-13:hover {
cursor:pointer;
fill:rgba(255,234,216,1);
}
.zr0-cls-14:hover {
cursor:pointer;
fill:rgba(255,248,233,1);
}
.zr0-cls-15:hover {
cursor:pointer;
fill:rgba(255,251,242,1);
}
.zr0-cls-16:hover {
cursor:pointer;
fill:rgba(231,169,136,1);
}
.zr0-cls-17:hover {
cursor:pointer;
fill:rgba(250,199,174,1);
}
.zr0-cls-18:hover {
cursor:pointer;
fill:rgba(255,228,211,1);
}
.zr0-cls-19:hover {
cursor:pointer;
fill:rgba(255,247,231,1);
}
.zr0-cls-20:hover {
cursor:pointer;
fill:rgba(218,152,121,1);
}
.zr0-cls-21:hover {
cursor:pointer;
fill:rgba(245,193,170,1);
}
.zr0-cls-22:hover {
cursor:pointer;
fill:rgba(255,229,216,1);
}
.zr0-cls-23:hover {
cursor:pointer;
fill:rgba(139,201,181,1);
}
.zr0-cls-24:hover {
cursor:pointer;
fill:rgba(166,217,196,1);
}
.zr0-cls-25:hover {
cursor:pointer;
fill:rgba(199,237,223,1);
}
.zr0-cls-26:hover {
cursor:pointer;
fill:rgba(225,251,243,1);
}
.zr0-cls-27:hover {
cursor:pointer;
fill:rgba(245,255,253,1);
}
.zr0-cls-28:hover {
cursor:pointer;
fill:rgba(255,255,255,1);
}
.zr0-cls-29:hover {
cursor:pointer;
fill:rgba(155,206,213,1);
}
.zr0-cls-30:hover {
cursor:pointer;
fill:rgba(193,231,236,1);
}
.zr0-cls-31:hover {
cursor:pointer;
fill:rgba(225,253,255,1);
}
.zr0-cls-32:hover {
cursor:pointer;
fill:rgba(171,192,218,1);
}
.zr0-cls-33:hover {
cursor:pointer;
fill:rgba(205,227,246,1);
}
.zr0-cls-34:hover {
cursor:pointer;
fill:rgba(234,249,255,1);
}
.zr0-cls-35:hover {
cursor:pointer;
fill:rgba(253,255,255,1);
}
.zr0-cls-36:hover {
cursor:pointer;
fill:rgba(183,193,221,1);
}
.zr0-cls-37:hover {
cursor:pointer;
fill:rgba(211,221,243,1);
}
.zr0-cls-38:hover {
cursor:pointer;
fill:rgba(234,243,255,1);
}
.zr0-cls-39:hover {
cursor:pointer;
fill:rgba(250,255,255,1);
}

]]></style>
</svg>
